<svg width="14" height="14" viewBox="0 0 14 14" fill="none" xmlns="http://www.w3.org/2000/svg">
<g clip-path="url(#clip0_35_3670)">
<path d="M11.375 2.1875H2.625C1.90013 2.1875 1.3125 2.77513 1.3125 3.5V11.375C1.3125 12.0999 1.90013 12.6875 2.625 12.6875H11.375C12.0999 12.6875 12.6875 12.0999 12.6875 11.375V3.5C12.6875 2.77513 12.0999 2.1875 11.375 2.1875Z" stroke="#EE2A7B" stroke-width="0.75" stroke-linejoin="round"/>
<path d="M8.09375 7C8.45619 7 8.75 6.70619 8.75 6.34375C8.75 5.98131 8.45619 5.6875 8.09375 5.6875C7.73131 5.6875 7.4375 5.98131 7.4375 6.34375C7.4375 6.70619 7.73131 7 8.09375 7Z" fill="#EE2A7B"/>
<path d="M10.2812 7C10.6437 7 10.9375 6.70619 10.9375 6.34375C10.9375 5.98131 10.6437 5.6875 10.2812 5.6875C9.91881 5.6875 9.625 5.98131 9.625 6.34375C9.625 6.70619 9.91881 7 10.2812 7Z" fill="#EE2A7B"/>
<path d="M8.09375 9.1875C8.45619 9.1875 8.75 8.89369 8.75 8.53125C8.75 8.16881 8.45619 7.875 8.09375 7.875C7.73131 7.875 7.4375 8.16881 7.4375 8.53125C7.4375 8.89369 7.73131 9.1875 8.09375 9.1875Z" fill="#EE2A7B"/>
<path d="M10.2812 9.1875C10.6437 9.1875 10.9375 8.89369 10.9375 8.53125C10.9375 8.16881 10.6437 7.875 10.2812 7.875C9.91881 7.875 9.625 8.16881 9.625 8.53125C9.625 8.89369 9.91881 9.1875 10.2812 9.1875Z" fill="#EE2A7B"/>
<path d="M3.71875 9.1875C4.08119 9.1875 4.375 8.89369 4.375 8.53125C4.375 8.16881 4.08119 7.875 3.71875 7.875C3.35631 7.875 3.0625 8.16881 3.0625 8.53125C3.0625 8.89369 3.35631 9.1875 3.71875 9.1875Z" fill="#EE2A7B"/>
<path d="M5.90625 9.1875C6.26869 9.1875 6.5625 8.89369 6.5625 8.53125C6.5625 8.16881 6.26869 7.875 5.90625 7.875C5.54381 7.875 5.25 8.16881 5.25 8.53125C5.25 8.89369 5.54381 9.1875 5.90625 9.1875Z" fill="#EE2A7B"/>
<path d="M3.71875 11.375C4.08119 11.375 4.375 11.0812 4.375 10.7188C4.375 10.3563 4.08119 10.0625 3.71875 10.0625C3.35631 10.0625 3.0625 10.3563 3.0625 10.7188C3.0625 11.0812 3.35631 11.375 3.71875 11.375Z" fill="#EE2A7B"/>
<path d="M5.90625 11.375C6.26869 11.375 6.5625 11.0812 6.5625 10.7188C6.5625 10.3563 6.26869 10.0625 5.90625 10.0625C5.54381 10.0625 5.25 10.3563 5.25 10.7188C5.25 11.0812 5.54381 11.375 5.90625 11.375Z" fill="#EE2A7B"/>
<path d="M8.09375 11.375C8.45619 11.375 8.75 11.0812 8.75 10.7188C8.75 10.3563 8.45619 10.0625 8.09375 10.0625C7.73131 10.0625 7.4375 10.3563 7.4375 10.7188C7.4375 11.0812 7.73131 11.375 8.09375 11.375Z" fill="#EE2A7B"/>
<path d="M3.5 1.3125V2.1875M10.5 1.3125V2.1875" stroke="#EE2A7B" stroke-width="0.75" stroke-linecap="round" stroke-linejoin="round"/>
<path d="M12.6875 4.375H1.3125" stroke="#EE2A7B" stroke-width="0.75" stroke-linejoin="round"/>
</g>
<defs>
<clipPath id="clip0_35_3670">
<rect width="14" height="14" fill="white"/>
</clipPath>
</defs>
</svg>
