<svg width="48" height="44" viewBox="0 0 48 44" fill="none" xmlns="http://www.w3.org/2000/svg">
<path d="M2.99949 18C2.99994 14.7138 4.07956 11.5186 6.07241 8.90563C8.06527 6.29263 10.8611 4.40638 14.0302 3.53677C17.1992 2.66716 20.5662 2.86232 23.6136 4.09226C26.6609 5.3222 29.2201 7.51885 30.8977 10.3446C32.5753 13.1704 33.2785 16.4688 32.8993 19.7331C32.52 22.9974 31.0793 26.0468 28.7985 28.4126C26.5178 30.7785 23.5232 32.3299 20.275 32.8284C17.0268 33.327 13.7048 32.745 10.8195 31.172C10.4803 30.9866 10.0827 30.9393 9.70949 31.04L3.20949 32.78L4.95349 26.276C5.05308 25.9041 5.00581 25.5081 4.82149 25.17C3.62211 22.9708 2.99553 20.505 2.99949 18ZM17.9995 3.20466e-07C14.9296 -0.000578882 11.9107 0.783978 9.2295 2.27909C6.54835 3.77421 4.29413 5.9302 2.68111 8.54213C1.0681 11.1541 0.149903 14.1351 0.0137965 17.2019C-0.12231 20.2688 0.5282 23.3195 1.90349 26.064L0.0874922 32.842C-0.0255272 33.2656 -0.0251753 33.7114 0.0885126 34.1348C0.202201 34.5582 0.425227 34.9443 0.73522 35.2543C1.04521 35.5643 1.43127 35.7873 1.85467 35.901C2.27807 36.0147 2.72392 36.015 3.14749 35.902L9.92149 34.09C12.3493 35.3075 15.0211 35.9599 17.7368 35.9982C20.4525 36.0365 23.1417 35.4598 25.6028 34.3112C28.064 33.1626 30.2333 31.472 31.9483 29.366C33.6633 27.26 34.8794 24.7931 35.5057 22.1504C36.1319 19.5076 36.152 16.7573 35.5644 14.1057C34.9768 11.454 33.7967 8.96975 32.1127 6.83892C30.4286 4.7081 28.2842 2.98599 25.84 1.80162C23.3959 0.617251 20.7155 0.00132961 17.9995 3.20466e-07ZM29.9995 44C27.4545 44.003 24.938 43.465 22.6168 42.4216C20.2956 41.3782 18.2227 39.8533 16.5355 37.948C17.9424 38.0504 19.3561 38.0048 20.7535 37.812C23.3904 39.8822 26.6471 41.0051 29.9995 41C32.5084 41.0038 34.9778 40.3751 37.1795 39.172C37.5187 38.9866 37.9163 38.9393 38.2895 39.04L44.7895 40.78L43.0455 34.276C42.9459 33.9041 42.9932 33.5081 43.1775 33.17C44.3766 30.9706 45.0031 28.505 44.9995 26C45.0006 23.3369 44.2926 20.7215 42.9481 18.4227C41.6036 16.1239 39.6712 14.2246 37.3495 12.92C36.9913 11.5544 36.4885 10.2309 35.8495 8.972C38.2768 9.80659 40.4977 11.1504 42.3632 12.9135C44.2287 14.6765 45.6958 16.818 46.666 19.1943C47.6363 21.5706 48.0874 24.1269 47.989 26.6918C47.8906 29.2568 47.245 31.771 46.0955 34.066L47.9115 40.842C48.0247 41.2658 48.0244 41.7119 47.9106 42.1355C47.7968 42.5591 47.5736 42.9454 47.2633 43.2554C46.9531 43.5655 46.5667 43.7885 46.143 43.902C45.7193 44.0154 45.2732 44.0155 44.8495 43.902L38.0775 42.09C35.5713 43.3498 32.8045 44.004 29.9995 44Z" fill="#EE2A7B" fill-opacity="0.5"/>
</svg>
