<svg width="36" height="36" viewBox="0 0 36 36" fill="none" xmlns="http://www.w3.org/2000/svg">
<path fill-rule="evenodd" clip-rule="evenodd" d="M18.001 36C21.2527 36.0003 24.4438 35.1197 27.2352 33.4518C30.0266 31.7839 32.3141 29.3909 33.8545 26.5272C35.395 23.6635 36.131 20.436 35.9842 17.1876C35.8374 13.9391 34.8134 10.7911 33.021 8.078L18.711 23.978C18.0426 24.7208 17.1203 25.1866 16.1257 25.2835C15.1312 25.3805 14.1363 25.1017 13.337 24.502L6.80099 19.6C6.37664 19.2817 6.0961 18.8079 6.02109 18.2828C5.94607 17.7577 6.08273 17.2243 6.40099 16.8C6.71925 16.3757 7.19304 16.0951 7.71814 16.0201C8.24325 15.9451 8.77664 16.0817 9.20099 16.4L15.737 21.302L30.429 4.98C28.3006 2.94822 25.7066 1.4692 22.874 0.672444C20.0414 -0.124313 17.0567 -0.214512 14.1812 0.409745C11.3057 1.034 8.62713 2.35368 6.37993 4.25322C4.13273 6.15277 2.38547 8.57426 1.29114 11.3057C0.196813 14.0371 -0.211214 16.9951 0.102786 19.9208C0.416786 22.8465 1.44324 25.6506 3.09227 28.0876C4.7413 30.5246 6.96262 32.5201 9.56173 33.8995C12.1608 35.279 15.0585 36.0002 18.001 36Z" fill="#62C400"/>
</svg>
