<svg width="26" height="26" viewBox="0 0 26 26" fill="none" xmlns="http://www.w3.org/2000/svg">
<path d="M0.927734 23.2144V2.78585C0.927734 2.29331 1.1234 1.82094 1.47168 1.47266C1.81996 1.12437 2.29233 0.928711 2.78488 0.928711H23.2134C23.706 0.928711 24.1784 1.12437 24.5266 1.47266C24.8749 1.82094 25.0706 2.29331 25.0706 2.78585V23.2144C25.0706 23.707 24.8749 24.1793 24.5266 24.5276C24.1784 24.8759 23.706 25.0716 23.2134 25.0716H17.642V16.2687H18.9606C19.261 16.2687 19.5492 16.1494 19.7616 15.9369C19.9741 15.7245 20.0934 15.4363 20.0934 15.1359V13.7059C20.093 13.4056 19.9734 13.1177 19.7611 12.9053C19.5488 12.693 19.2609 12.5735 18.9606 12.573H17.7163V10.8273C17.7163 9.26728 18.422 9.26728 19.1277 9.26728H20.0377C20.1872 9.27344 20.3362 9.24669 20.4742 9.18893C20.6122 9.13116 20.7358 9.04379 20.8363 8.933C20.9442 8.83025 21.0297 8.70623 21.0872 8.56877C21.1447 8.43132 21.1731 8.28342 21.1706 8.13443V6.76014C21.176 6.60879 21.1515 6.45786 21.0983 6.31604C21.0452 6.17423 20.9645 6.04433 20.8609 5.93385C20.7573 5.82336 20.6329 5.73447 20.4948 5.67229C20.3567 5.61011 20.2077 5.57588 20.0563 5.57157H17.9206C17.2974 5.54814 16.6766 5.66027 16.101 5.9002C15.5254 6.14014 15.0087 6.50216 14.5867 6.96127C14.1647 7.42038 13.8473 7.96563 13.6566 8.55936C13.4659 9.15309 13.4063 9.78114 13.482 10.4001V12.573H12.2934C12.1431 12.5705 11.9938 12.598 11.8542 12.6538C11.7146 12.7097 11.5875 12.7927 11.4804 12.8982C11.3732 13.0036 11.2881 13.1293 11.23 13.268C11.1719 13.4067 11.142 13.5555 11.142 13.7059V15.1359C11.142 15.2862 11.1719 15.435 11.23 15.5737C11.2881 15.7124 11.3732 15.8381 11.4804 15.9435C11.5875 16.049 11.7146 16.132 11.8542 16.1879C11.9938 16.2437 12.1431 16.2712 12.2934 16.2687H13.482V25.0716H2.78488C2.29233 25.0716 1.81996 24.8759 1.47168 24.5276C1.1234 24.1793 0.927734 23.707 0.927734 23.2144Z" stroke="url(#paint0_linear_28_2047)" stroke-width="1.85714" stroke-linecap="round" stroke-linejoin="round"/>
<defs>
<linearGradient id="paint0_linear_28_2047" x1="0.927734" y1="13.0004" x2="25.0706" y2="13.0004" gradientUnits="userSpaceOnUse">
<stop stop-color="#6787FD"/>
<stop offset="0.26" stop-color="#5E7BF5"/>
<stop offset="0.73" stop-color="#475DE1"/>
<stop offset="1" stop-color="#3749D4"/>
</linearGradient>
</defs>
</svg>
