<svg width="41" height="48" viewBox="0 0 41 48" fill="none" xmlns="http://www.w3.org/2000/svg">
<path fill-rule="evenodd" clip-rule="evenodd" d="M40.5878 28.0938L40.5878 0.225099L10.7285 0.225098L12.4156 11.2922L15.8245 7.63021L37.2436 12.567L30.4715 17.795L32.334 21.9338C30.5659 23.0299 28.9608 23.9483 27.4232 24.7174V29.853C27.4232 33.5177 24.4524 36.4884 20.7878 36.4884C17.1231 36.4884 14.1524 33.5176 14.1524 29.853V28.2766C13.2896 28.349 12.3861 28.4067 11.4329 28.4525L10.2947 23.7963H4.59738V27.4178L5.31401 28.6594L5.15476 31.1196H3.56226L3.35574 28.6594L4.08003 27.4178V23.7963H0.775391L0.786938 23.7839L0.775391 23.7941V23.7963V28.0938C0.77539 39.0877 9.68771 48 20.6816 48C31.6755 48 40.5878 39.0877 40.5878 28.0938ZM32.4579 36.0441C33.0941 34.5081 33.4216 32.8618 33.4216 31.1992H30.8895C30.8895 32.5292 30.6275 33.8463 30.1185 35.0751C29.6096 36.3039 28.8635 37.4205 27.923 38.361C26.9825 39.3015 25.866 40.0475 24.6372 40.5565C23.4083 41.0655 22.0913 41.3275 20.7612 41.3275C19.4312 41.3275 18.1141 41.0655 16.8853 40.5565C15.6565 40.0475 14.54 39.3015 13.5995 38.361C12.659 37.4205 11.9129 36.3039 11.4039 35.0751C10.8949 33.8463 10.633 32.5292 10.633 31.1992H8.10088C8.10088 32.8618 8.42835 34.5081 9.06459 36.0441C9.70083 37.5801 10.6334 38.9758 11.809 40.1514C12.9846 41.327 14.3803 42.2596 15.9163 42.8958C17.4524 43.5321 19.0987 43.8595 20.7612 43.8595C22.4238 43.8595 24.0701 43.5321 25.6061 42.8958C27.1422 42.2596 28.5378 41.327 29.7135 40.1514C30.8891 38.9758 31.8216 37.5801 32.4579 36.0441Z" fill="url(#paint0_linear_14_2498)"/>
<path d="M16.3828 28.0938C20.9727 27.3806 22.4278 26.8139 25.3008 25.7051V29.7659C25.3008 32.2286 23.3044 34.2249 20.8418 34.2249C18.3792 34.2249 16.3828 32.2286 16.3828 29.7659V28.0938Z" fill="url(#paint1_linear_14_2498)"/>
<defs>
<linearGradient id="paint0_linear_14_2498" x1="1.26518" y1="35" x2="40.6931" y2="5.12298" gradientUnits="userSpaceOnUse">
<stop stop-color="#6787FD"/>
<stop offset="0.26" stop-color="#5E7BF5"/>
<stop offset="0.73" stop-color="#475DE1"/>
<stop offset="1" stop-color="#3749D4"/>
</linearGradient>
<linearGradient id="paint1_linear_14_2498" x1="16.4925" y1="31.9066" x2="23.7871" y2="24.9635" gradientUnits="userSpaceOnUse">
<stop stop-color="#6787FD"/>
<stop offset="0.26" stop-color="#5E7BF5"/>
<stop offset="0.73" stop-color="#475DE1"/>
<stop offset="1" stop-color="#3749D4"/>
</linearGradient>
</defs>
</svg>
