<svg width="28" height="28" viewBox="0 0 28 28" fill="none" xmlns="http://www.w3.org/2000/svg">
<path d="M8.39935 0.666504H19.5993C23.866 0.666504 27.3327 4.13317 27.3327 8.39984V19.5998C27.3327 21.6508 26.5179 23.6178 25.0676 25.0681C23.6174 26.5184 21.6504 27.3332 19.5993 27.3332H8.39935C4.13268 27.3332 0.666016 23.8665 0.666016 19.5998V8.39984C0.666016 6.34883 1.48078 4.38183 2.93106 2.93154C4.38134 1.48126 6.34834 0.666504 8.39935 0.666504ZM8.13268 3.33317C6.85964 3.33317 5.63874 3.83888 4.73857 4.73906C3.8384 5.63923 3.33268 6.86013 3.33268 8.13317V19.8665C3.33268 22.5198 5.47935 24.6665 8.13268 24.6665H19.866C21.1391 24.6665 22.36 24.1608 23.2601 23.2606C24.1603 22.3604 24.666 21.1395 24.666 19.8665V8.13317C24.666 5.47984 22.5193 3.33317 19.866 3.33317H8.13268ZM20.9993 5.33317C21.4414 5.33317 21.8653 5.50877 22.1779 5.82133C22.4904 6.13389 22.666 6.55781 22.666 6.99984C22.666 7.44186 22.4904 7.86579 22.1779 8.17835C21.8653 8.49091 21.4414 8.6665 20.9993 8.6665C20.5573 8.6665 20.1334 8.49091 19.8208 8.17835C19.5083 7.86579 19.3327 7.44186 19.3327 6.99984C19.3327 6.55781 19.5083 6.13389 19.8208 5.82133C20.1334 5.50877 20.5573 5.33317 20.9993 5.33317ZM13.9993 7.33317C15.7675 7.33317 17.4632 8.03555 18.7134 9.28579C19.9636 10.536 20.666 12.2317 20.666 13.9998C20.666 15.7679 19.9636 17.4636 18.7134 18.7139C17.4632 19.9641 15.7675 20.6665 13.9993 20.6665C12.2312 20.6665 10.5355 19.9641 9.2853 18.7139C8.03506 17.4636 7.33268 15.7679 7.33268 13.9998C7.33268 12.2317 8.03506 10.536 9.2853 9.28579C10.5355 8.03555 12.2312 7.33317 13.9993 7.33317ZM13.9993 9.99984C12.9385 9.99984 11.9211 10.4213 11.1709 11.1714C10.4208 11.9216 9.99935 12.939 9.99935 13.9998C9.99935 15.0607 10.4208 16.0781 11.1709 16.8283C11.9211 17.5784 12.9385 17.9998 13.9993 17.9998C15.0602 17.9998 16.0776 17.5784 16.8278 16.8283C17.5779 16.0781 17.9993 15.0607 17.9993 13.9998C17.9993 12.939 17.5779 11.9216 16.8278 11.1714C16.0776 10.4213 15.0602 9.99984 13.9993 9.99984Z" fill="url(#paint0_linear_28_2029)"/>
<defs>
<linearGradient id="paint0_linear_28_2029" x1="0.666016" y1="14.0001" x2="27.3327" y2="14.0001" gradientUnits="userSpaceOnUse">
<stop stop-color="#6787FD"/>
<stop offset="0.26" stop-color="#5E7BF5"/>
<stop offset="0.73" stop-color="#475DE1"/>
<stop offset="1" stop-color="#3749D4"/>
</linearGradient>
</defs>
</svg>
