<svg width="178" height="50" viewBox="0 0 178 50" fill="none" xmlns="http://www.w3.org/2000/svg">
<path fill-rule="evenodd" clip-rule="evenodd" d="M39.8124 30.0937L39.8124 2.22504L9.95311 2.22504L11.6402 13.2921L15.0491 9.63015L36.4682 14.5669L29.6961 19.795L31.5586 23.9338C29.7906 25.0298 28.1854 25.9482 26.6478 26.7173V31.853C26.6478 35.5176 23.677 38.4884 20.0124 38.4884C16.3478 38.4884 13.377 35.5176 13.377 31.853V30.2766C12.5142 30.3489 11.6108 30.4066 10.6575 30.4524L9.51935 25.7962H3.82199V29.4177L4.53862 30.6594L4.37937 33.1195H2.78687L2.58035 30.6594L3.30464 29.4177V25.7962H0L0.0115478 25.7838L0 25.794V25.7962V30.0937C-4.80559e-07 41.0876 8.91232 50 19.9062 50C30.9001 50 39.8124 41.0876 39.8124 30.0937ZM31.6825 38.044C32.3187 36.508 32.6462 34.8617 32.6462 33.1991H30.1141C30.1141 34.5292 29.8522 35.8462 29.3432 37.075C28.8342 38.3039 28.0881 39.4204 27.1476 40.3609C26.2071 41.3014 25.0906 42.0474 23.8618 42.5564C22.633 43.0654 21.3159 43.3274 19.9858 43.3274C18.6558 43.3274 17.3387 43.0654 16.1099 42.5564C14.8811 42.0474 13.7646 41.3014 12.8241 40.3609C11.8836 39.4204 11.1375 38.3039 10.6285 37.075C10.1195 35.8462 9.85756 34.5292 9.85756 33.1991H7.32549C7.32549 34.8617 7.65296 36.508 8.2892 38.044C8.92544 39.5801 9.858 40.9757 11.0336 42.1513C12.2092 43.327 13.6049 44.2595 15.1409 44.8958C16.677 45.532 18.3233 45.8595 19.9858 45.8595C21.6484 45.8595 23.2947 45.532 24.8308 44.8958C26.3668 44.2595 27.7624 43.327 28.9381 42.1513C30.1137 40.9757 31.0462 39.5801 31.6825 38.044Z" fill="url(#paint0_linear_1_409)"/>
<path d="M15.6074 30.0939C20.1973 29.3806 21.6524 28.814 24.5254 27.7051V31.7659C24.5254 34.2286 22.529 36.2249 20.0664 36.2249V36.2249C17.6038 36.2249 15.6074 34.2286 15.6074 31.7659V30.0939Z" fill="url(#paint1_linear_1_409)"/>
<path d="M88.9006 16.1912C76.6149 16.8265 70.1873 22.6226 70.1873 22.6226C70.1873 22.6226 78.5373 23.5548 88.9006 16.1912Z" fill="url(#paint2_linear_1_409)"/>
<path d="M79.2368 25.8616H80.6275C82.3427 25.8616 83.519 25.6762 84.1564 25.3054C84.7938 24.9229 85.1125 24.2681 85.1125 23.341C85.1125 22.379 84.8112 21.7069 84.2086 21.3244C83.6175 20.9304 82.4586 20.7334 80.7318 20.7334H79.2368V25.8616ZM72.8047 41.1422V15.692H79.7757C82.6498 15.692 84.6548 15.7847 85.7905 15.9702C86.9379 16.1556 87.923 16.4743 88.7458 16.9263C89.6845 17.4478 90.3973 18.1489 90.884 19.0297C91.3824 19.8989 91.6315 20.9072 91.6315 22.0545C91.6315 23.5032 91.2607 24.6563 90.519 25.514C89.7888 26.36 88.6183 27.0032 87.0074 27.4436C88.8153 27.5827 90.2292 28.2201 91.2491 29.3558C92.269 30.48 92.7789 31.9866 92.7789 33.8757C92.7789 35.2316 92.4891 36.4253 91.9097 37.4568C91.3418 38.4882 90.5248 39.2879 89.4585 39.8557C88.5893 40.3193 87.5173 40.6496 86.2425 40.8466C84.9677 41.0436 82.8816 41.1422 79.9843 41.1422H72.8047ZM79.2368 35.9443H81.6705C83.3162 35.9443 84.4809 35.7415 85.1647 35.3359C85.8485 34.9187 86.1904 34.2291 86.1904 33.2672C86.1904 32.201 85.8774 31.4593 85.2516 31.0421C84.6258 30.6133 83.4669 30.3989 81.7748 30.3989H79.2368V35.9443Z" fill="#232323"/>
<path d="M108.633 30.1033C108.517 29.1066 108.135 28.307 107.486 27.7043C106.848 27.1017 106.06 26.8004 105.122 26.8004C104.113 26.8004 103.308 27.0785 102.705 27.6348C102.114 28.1795 101.72 29.0023 101.523 30.1033H108.633ZM114.735 33.5975H101.384C101.396 34.9535 101.743 36.0023 102.427 36.744C103.111 37.4741 104.078 37.8392 105.33 37.8392C106.269 37.8392 107.057 37.6654 107.694 37.3177C108.343 36.9584 108.836 36.4311 109.172 35.7357L113.831 37.6132C113.275 38.9576 112.29 39.9948 110.876 40.7249C109.462 41.4551 107.729 41.8201 105.678 41.8201C102.618 41.8201 100.161 40.9741 98.307 39.2821C96.4643 37.5784 95.5429 35.3359 95.5429 32.5545C95.5429 29.8194 96.4643 27.5479 98.307 25.74C100.161 23.932 102.502 23.028 105.33 23.028C108.239 23.028 110.534 23.9436 112.214 25.7747C113.895 27.6058 114.735 30.1149 114.735 33.302V33.5975Z" fill="#232323"/>
<path d="M116.664 39.6819L117.951 34.9535C118.855 35.7415 119.846 36.35 120.924 36.7788C122.013 37.196 123.108 37.4046 124.209 37.4046C124.986 37.4046 125.577 37.2829 125.982 37.0395C126.388 36.7846 126.591 36.4195 126.591 35.9443C126.591 35.1679 125.774 34.5884 124.14 34.2059C123.606 34.0785 123.178 33.9684 122.853 33.8757C120.999 33.3657 119.649 32.6993 118.803 31.8765C117.968 31.0421 117.551 29.9643 117.551 28.6431C117.551 26.9394 118.188 25.5777 119.463 24.5578C120.75 23.538 122.488 23.028 124.678 23.028C125.803 23.028 126.944 23.1613 128.103 23.4279C129.274 23.6828 130.467 24.0827 131.684 24.6274L130.398 28.8865C129.575 28.3302 128.741 27.9072 127.895 27.6174C127.049 27.3277 126.202 27.1828 125.356 27.1828C124.65 27.1828 124.116 27.2929 123.757 27.5131C123.398 27.7333 123.218 28.052 123.218 28.4692C123.218 29.0951 124.029 29.6224 125.652 30.0512C126.023 30.1555 126.301 30.2308 126.486 30.2772C128.63 30.8914 130.12 31.6157 130.954 32.4502C131.8 33.273 132.223 34.3914 132.223 35.8053C132.223 37.6016 131.534 39.0561 130.154 40.1687C128.775 41.2696 126.95 41.8201 124.678 41.8201C123.137 41.8201 121.706 41.6405 120.385 41.2812C119.063 40.9335 117.823 40.4004 116.664 39.6819Z" fill="#232323"/>
<path d="M136.5 41.1422V27.9651H133.875V23.5843H136.5V18.3518H142.601V23.5843H145.226V27.9651H142.601V41.1422H136.5Z" fill="#232323"/>
<path d="M147.99 18.1084C147.99 17.1696 148.321 16.37 148.981 15.7094C149.653 15.0488 150.459 14.7185 151.398 14.7185C152.371 14.7185 153.182 15.043 153.831 15.692C154.492 16.341 154.822 17.1465 154.822 18.1084C154.822 19.0703 154.486 19.8873 153.814 20.5595C153.153 21.2317 152.348 21.5678 151.398 21.5678C150.471 21.5678 149.671 21.2259 148.999 20.5421C148.326 19.8584 147.99 19.0471 147.99 18.1084ZM148.303 41.1422V23.5843H154.509V41.1422H148.303Z" fill="#232323"/>
<path d="M171.354 30.1033C171.239 29.1066 170.856 28.307 170.207 27.7043C169.57 27.1017 168.782 26.8004 167.843 26.8004C166.835 26.8004 166.029 27.0785 165.427 27.6348C164.835 28.1795 164.441 29.0023 164.244 30.1033H171.354ZM177.456 33.5975H164.105C164.117 34.9535 164.465 36.0023 165.148 36.744C165.832 37.4741 166.8 37.8392 168.052 37.8392C168.99 37.8392 169.778 37.6654 170.416 37.3177C171.065 36.9584 171.557 36.4311 171.893 35.7357L176.552 37.6132C175.996 38.9576 175.011 39.9948 173.597 40.7249C172.183 41.4551 170.451 41.8201 168.399 41.8201C165.34 41.8201 162.883 40.9741 161.028 39.2821C159.186 37.5784 158.264 35.3359 158.264 32.5545C158.264 29.8194 159.186 27.5479 161.028 25.74C162.883 23.932 165.224 23.028 168.052 23.028C170.96 23.028 173.255 23.9436 174.936 25.7747C176.616 27.6058 177.456 30.1149 177.456 33.302V33.5975Z" fill="#232323"/>
<path d="M66.6238 22.3715L68.9198 28.8154L67.8988 29.1438L65.9826 22.5778L66.6238 22.3715Z" fill="url(#paint3_linear_1_409)"/>
<path d="M68.019 29.2508L67.7414 29.3401L65.9451 22.5696L66.0293 22.5425L68.019 29.2508Z" fill="url(#paint4_linear_1_409)"/>
<path d="M68.2506 29.3017L67.973 29.391L66.0742 22.5289L66.1602 22.5012L68.2506 29.3017Z" fill="url(#paint5_linear_1_409)"/>
<path d="M68.3965 29.0406L68.1207 29.1294L66.2089 22.4849L66.2949 22.4572L68.3965 29.0406Z" fill="url(#paint6_linear_1_409)"/>
<path d="M68.8547 28.9828L69.1323 28.8935L66.6644 22.3389L66.5784 22.3666L68.8547 28.9828Z" fill="url(#paint7_linear_1_409)"/>
<path d="M68.6351 28.9646L68.9109 28.8759L66.5388 22.3795L66.4528 22.4072L68.6351 28.9646Z" fill="url(#paint8_linear_1_409)"/>
<path d="M68.5002 29.255L68.7779 29.1657L66.4018 22.4235L66.3158 22.4512L68.5002 29.255Z" fill="url(#paint9_linear_1_409)"/>
<path d="M60.4531 18.3238L74.1479 5.59236C74.3732 5.38351 74.6795 5.285 74.9825 5.3239L93.5315 7.68442C93.7645 7.71425 93.8405 8.01197 93.6516 8.1498L84.9161 14.523L71.4415 18.857L60.6286 18.7714C60.3948 18.7695 60.2824 18.4815 60.4549 18.3233L60.4531 18.3238Z" fill="url(#paint10_linear_1_409)"/>
<g filter="url(#filter0_d_1_409)">
<path d="M86.0941 10.092L88.8451 16.4943C81.903 16.7011 77.7831 17.9822 70.0078 22.5531L68.3852 15.7879C68.3852 15.7879 73.8476 9.97344 86.0959 10.0915L86.0941 10.092Z" fill="url(#paint11_linear_1_409)"/>
</g>
<path d="M69.6681 21.1273L69.4983 20.421C71.5815 18.7192 77.5371 14.7699 88.0506 14.6376L88.3758 15.3967C78.5845 15.7592 72.5077 19.0854 69.6681 21.1273Z" fill="url(#paint12_linear_1_409)"/>
<path d="M93.6516 8.1498L93.5682 8.21021L75.1571 5.86661C74.8523 5.82829 74.546 5.9268 74.3224 6.13508L60.7298 18.7724L60.6269 18.7719C60.393 18.7701 60.2812 18.4839 60.4531 18.3239L74.1479 5.59237C74.3732 5.38351 74.6777 5.28558 74.9825 5.3239L93.5315 7.68442C93.7645 7.71425 93.8405 8.01197 93.6516 8.1498Z" fill="url(#paint13_linear_1_409)"/>
<path d="M63.8463 14.8586C63.9484 14.7151 64.1729 14.5282 64.6717 14.4014L64.075 14.955L66.2209 21.6269L65.9093 21.7272L63.8025 15.177C63.7679 15.0696 63.7811 14.9507 63.8469 14.8604L63.8463 14.8586Z" fill="url(#paint14_linear_1_409)"/>
<path d="M65.94 22.6289L66.7246 22.3766L66.2859 21.486L65.7772 21.6496L65.94 22.6289Z" fill="url(#paint15_linear_1_409)"/>
<rect x="47.2852" y="28.9268" width="16.1323" height="4.4503" fill="#232323"/>
<defs>
<filter id="filter0_d_1_409" x="67.7592" y="10.0599" width="21.712" height="13.7156" filterUnits="userSpaceOnUse" color-interpolation-filters="sRGB">
<feFlood flood-opacity="0" result="BackgroundImageFix"/>
<feColorMatrix in="SourceAlpha" type="matrix" values="0 0 0 0 0 0 0 0 0 0 0 0 0 0 0 0 0 0 127 0" result="hardAlpha"/>
<feOffset dy="0.596273"/>
<feGaussianBlur stdDeviation="0.313043"/>
<feComposite in2="hardAlpha" operator="out"/>
<feColorMatrix type="matrix" values="0 0 0 0 0 0 0 0 0 0 0 0 0 0 0 0 0 0 0.25 0"/>
<feBlend mode="normal" in2="BackgroundImageFix" result="effect1_dropShadow_1_409"/>
<feBlend mode="normal" in="SourceGraphic" in2="effect1_dropShadow_1_409" result="shape"/>
</filter>
<linearGradient id="paint0_linear_1_409" x1="0.489786" y1="36.9999" x2="39.9177" y2="7.12292" gradientUnits="userSpaceOnUse">
<stop stop-color="#6787FD"/>
<stop offset="0.26" stop-color="#5E7BF5"/>
<stop offset="0.73" stop-color="#475DE1"/>
<stop offset="1" stop-color="#3749D4"/>
</linearGradient>
<linearGradient id="paint1_linear_1_409" x1="15.7171" y1="33.9066" x2="23.0118" y2="26.9635" gradientUnits="userSpaceOnUse">
<stop stop-color="#6787FD"/>
<stop offset="0.26" stop-color="#5E7BF5"/>
<stop offset="0.73" stop-color="#475DE1"/>
<stop offset="1" stop-color="#3749D4"/>
</linearGradient>
<linearGradient id="paint2_linear_1_409" x1="78.1023" y1="12.6447" x2="79.11" y2="17.3656" gradientUnits="userSpaceOnUse">
<stop stop-color="#4B62B8"/>
<stop offset="0.28" stop-color="#475DB4"/>
<stop offset="0.57" stop-color="#3E51AA"/>
<stop offset="0.86" stop-color="#2E3D99"/>
<stop offset="1" stop-color="#25318F"/>
</linearGradient>
<linearGradient id="paint3_linear_1_409" x1="68.8623" y1="30.4862" x2="66.9291" y2="24.0581" gradientUnits="userSpaceOnUse">
<stop stop-color="#DABC69"/>
<stop offset="0.07" stop-color="#DAB663"/>
<stop offset="0.37" stop-color="#DAA352"/>
<stop offset="0.68" stop-color="#DA9747"/>
<stop offset="1" stop-color="#DA9444"/>
</linearGradient>
<linearGradient id="paint4_linear_1_409" x1="68.3529" y1="30.8234" x2="66.3789" y2="24.2562" gradientUnits="userSpaceOnUse">
<stop stop-color="#F0E37D"/>
<stop offset="0.08" stop-color="#F0DD76"/>
<stop offset="0.38" stop-color="#F0CD63"/>
<stop offset="0.68" stop-color="#F0C457"/>
<stop offset="1" stop-color="#F0C154"/>
</linearGradient>
<linearGradient id="paint5_linear_1_409" x1="68.58" y1="30.9034" x2="66.5727" y2="24.2264" gradientUnits="userSpaceOnUse">
<stop stop-color="#F0E37D"/>
<stop offset="0.08" stop-color="#F0DD76"/>
<stop offset="0.38" stop-color="#F0CD63"/>
<stop offset="0.68" stop-color="#F0C457"/>
<stop offset="1" stop-color="#F0C154"/>
</linearGradient>
<linearGradient id="paint6_linear_1_409" x1="68.7133" y1="30.597" x2="66.7641" y2="24.1128" gradientUnits="userSpaceOnUse">
<stop stop-color="#F0E37D"/>
<stop offset="0.08" stop-color="#F0DD76"/>
<stop offset="0.38" stop-color="#F0CD63"/>
<stop offset="0.68" stop-color="#F0C457"/>
<stop offset="1" stop-color="#F0C154"/>
</linearGradient>
<linearGradient id="paint7_linear_1_409" x1="69.5091" y1="30.4522" x2="67.2845" y2="23.9657" gradientUnits="userSpaceOnUse">
<stop stop-color="#F0E37D"/>
<stop offset="0.08" stop-color="#F0DD76"/>
<stop offset="0.38" stop-color="#F0CD63"/>
<stop offset="0.68" stop-color="#F0C457"/>
<stop offset="1" stop-color="#F0C154"/>
</linearGradient>
<linearGradient id="paint8_linear_1_409" x1="69.285" y1="30.4138" x2="67.0881" y2="24.0073" gradientUnits="userSpaceOnUse">
<stop stop-color="#F0E37D"/>
<stop offset="0.08" stop-color="#F0DD76"/>
<stop offset="0.38" stop-color="#F0CD63"/>
<stop offset="0.68" stop-color="#F0C457"/>
<stop offset="1" stop-color="#F0C154"/>
</linearGradient>
<linearGradient id="paint9_linear_1_409" x1="69.1681" y1="30.7538" x2="66.896" y2="24.1323" gradientUnits="userSpaceOnUse">
<stop stop-color="#F0E37D"/>
<stop offset="0.08" stop-color="#F0DD76"/>
<stop offset="0.38" stop-color="#F0CD63"/>
<stop offset="0.68" stop-color="#F0C457"/>
<stop offset="1" stop-color="#F0C154"/>
</linearGradient>
<linearGradient id="paint10_linear_1_409" x1="93.0376" y1="5.6633" x2="59.6761" y2="16.3938" gradientUnits="userSpaceOnUse">
<stop stop-color="#3456D6"/>
<stop offset="0.33" stop-color="#3251D1"/>
<stop offset="0.69" stop-color="#2D45C4"/>
<stop offset="1" stop-color="#2736B3"/>
</linearGradient>
<linearGradient id="paint11_linear_1_409" x1="87.5202" y1="12.3753" x2="68.683" y2="18.4341" gradientUnits="userSpaceOnUse">
<stop stop-color="#6787FD"/>
<stop offset="0.26" stop-color="#5E7BF5"/>
<stop offset="0.73" stop-color="#475DE1"/>
<stop offset="1" stop-color="#3749D4"/>
</linearGradient>
<linearGradient id="paint12_linear_1_409" x1="87.9926" y1="14.2056" x2="69.3685" y2="20.1959" gradientUnits="userSpaceOnUse">
<stop stop-color="#F0E37D"/>
<stop offset="0.08" stop-color="#F0DD76"/>
<stop offset="0.38" stop-color="#F0CD63"/>
<stop offset="0.68" stop-color="#F0C457"/>
<stop offset="1" stop-color="#F0C154"/>
</linearGradient>
<linearGradient id="paint13_linear_1_409" x1="92.5231" y1="4.06383" x2="59.1617" y2="14.7943" gradientUnits="userSpaceOnUse">
<stop stop-color="#6787FD"/>
<stop offset="0.26" stop-color="#5E7BF5"/>
<stop offset="0.73" stop-color="#475DE1"/>
<stop offset="1" stop-color="#3749D4"/>
</linearGradient>
<linearGradient id="paint14_linear_1_409" x1="66.7712" y1="23.2208" x2="64.6932" y2="16.3057" gradientUnits="userSpaceOnUse">
<stop stop-color="#F0E37D"/>
<stop offset="0.08" stop-color="#F0DD76"/>
<stop offset="0.38" stop-color="#F0CD63"/>
<stop offset="0.68" stop-color="#F0C457"/>
<stop offset="1" stop-color="#F0C154"/>
</linearGradient>
<linearGradient id="paint15_linear_1_409" x1="66.4007" y1="22.7278" x2="66.1202" y2="21.7943" gradientUnits="userSpaceOnUse">
<stop stop-color="#F0E37D"/>
<stop offset="0.08" stop-color="#F0DD76"/>
<stop offset="0.38" stop-color="#F0CD63"/>
<stop offset="0.68" stop-color="#F0C457"/>
<stop offset="1" stop-color="#F0C154"/>
</linearGradient>
</defs>
</svg>
