<svg width="172" height="48" viewBox="0 0 172 48" fill="none" xmlns="http://www.w3.org/2000/svg">
<path fill-rule="evenodd" clip-rule="evenodd" d="M39.7847 27.8493L39.7847 1.30428e-06L9.94619 0L11.6321 11.0594L15.0386 7.39996L36.4428 12.3333L29.6755 17.5577L31.5366 21.6936C29.7698 22.7889 28.1658 23.7067 26.6293 24.4753V29.6073C26.6293 33.2694 23.6605 36.2381 19.9985 36.2381C16.3364 36.2381 13.3677 33.2694 13.3677 29.6073V28.032C12.5055 28.1043 11.6027 28.162 10.6501 28.2077L9.51272 23.5548H3.81933V27.1738L4.53546 28.4145L4.37632 30.873H2.78493L2.57855 28.4145L3.30234 27.1738V23.5548H0L0.0115398 23.5424L0 23.5526V23.5548V27.8493C-4.80224e-07 38.8356 8.90611 47.7417 19.8924 47.7417C30.8786 47.7417 39.7847 38.8356 39.7847 27.8493ZM31.6604 35.7941C32.2962 34.2591 32.6235 32.614 32.6235 30.9525H30.0932C30.0932 32.2817 29.8314 33.5978 29.3227 34.8258C28.8141 36.0537 28.0686 37.1695 27.1287 38.1093C26.1889 39.0492 25.0731 39.7947 23.8452 40.3033C22.6172 40.812 21.3011 41.0738 19.9719 41.0738C18.6428 41.0738 17.3267 40.812 16.0987 40.3033C14.8707 39.7947 13.755 39.0492 12.8151 38.1093C11.8753 37.1695 11.1298 36.0537 10.6211 34.8258C10.1125 33.5978 9.8507 32.2817 9.8507 30.9525H7.32039C7.32039 32.614 7.64763 34.2591 8.28343 35.7941C8.91923 37.329 9.85114 38.7237 11.0259 39.8985C12.2007 41.0733 13.5954 42.0052 15.1304 42.641C16.6654 43.2768 18.3105 43.6041 19.9719 43.6041C21.6334 43.6041 23.2785 43.2768 24.8135 42.641C26.3484 42.0052 27.7431 41.0733 28.9179 39.8985C30.0927 38.7237 31.0246 37.329 31.6604 35.7941Z" fill="url(#paint0_linear_182_492)"/>
<path d="M15.5957 27.8492C20.1824 27.1365 21.6365 26.5703 24.5075 25.4622V29.5202C24.5075 31.9811 22.5125 33.9761 20.0516 33.9761C17.5907 33.9761 15.5957 31.9811 15.5957 29.5202V27.8492Z" fill="url(#paint1_linear_182_492)"/>
<path d="M89.5728 19.5502C77.2956 20.185 70.8725 25.9771 70.8725 25.9771C70.8725 25.9771 79.2167 26.9087 89.5728 19.5502Z" fill="url(#paint2_linear_182_492)"/>
<path d="M74.5972 21.1045C75.2376 19.5746 79.0088 19.7525 80.4319 19.7525C85.8397 20.0015 88.0099 22.492 88.0455 24.8045C88.0811 26.9748 87.1561 28.4334 85.5907 29.394C88.0099 30.746 88.8994 33.3076 88.508 35.5134C87.9744 38.4308 84.6301 39.8539 80.8233 39.8894C79.4357 39.9606 75.3799 39.8539 74.7039 38.324C73.7077 36.4028 73.4231 24.0218 74.5972 21.1045ZM80.3963 27.6152C81.9262 27.1527 82.6377 26.4767 82.6377 25.3738C82.6377 24.3064 81.7127 23.7016 80.2896 23.5949C80.3252 24.6978 80.3963 26.0853 80.3963 27.6152ZM80.3963 35.7269C81.7127 35.5845 82.7444 35.1932 82.9935 34.1259C83.1714 33.023 82.3887 32.2403 80.4319 31.8133C80.4319 33.1653 80.4319 34.5172 80.3963 35.7269ZM96.834 33.1653C97.3677 34.4105 98.3639 35.3355 100 35.3355C100.961 35.3355 102.171 35.0153 103.594 34.2326C103.878 34.0903 104.163 34.0191 104.448 34.0191C105.871 34.0191 106.76 35.8336 104.91 37.2211C103.131 38.5731 100.748 39.3202 98.435 39.3202C94.6282 39.3202 91.0704 37.2923 90.7147 32.596C90.43 28.2911 92.8137 23.4526 98.1504 23.3103C101.779 23.168 104.554 24.8757 104.732 27.9354C104.91 31.5999 100.961 33.4499 96.834 33.1653ZM96.585 29.3585C97.0475 29.5008 97.4744 29.5719 97.8302 29.5719C100 29.5719 100 27.2594 98.6841 27.1527C97.6523 27.0815 96.8696 28.0777 96.585 29.3585ZM122.439 25.9074C122.652 27.4373 121.478 28.4334 120.197 28.4334C119.557 28.4334 118.881 28.22 118.312 27.6507C117.671 27.0815 116.675 26.6546 115.928 26.6546C115.43 26.6546 115.074 26.8325 114.967 27.2594C114.576 28.6825 122.047 28.7181 122.759 33.521C123.399 37.6125 119.094 39.6048 114.967 39.6048C111.623 39.6048 108.385 38.2529 108.136 35.6913C107.958 33.9124 108.812 32.7028 110.093 32.7028C110.733 32.7028 111.516 33.023 112.334 33.7701C113.58 34.9086 115.252 35.6557 116.248 35.6557C116.711 35.6557 117.031 35.5134 117.102 35.1932C117.707 33.3076 107.781 32.5605 108.421 27.0459C108.777 24.1997 112.37 22.9901 115.857 22.9901C119.094 22.9901 122.189 24.0574 122.439 25.9074ZM129.235 21.6025C129.52 20.1794 130.659 19.539 131.833 19.539C133.113 19.539 134.43 20.2862 134.821 21.6025C134.963 22.0651 135.106 22.9189 135.284 24.0574C136.458 24.0218 137.418 23.9862 138.094 24.0218C139.98 24.1286 140.514 26.9748 138.379 27.4017C137.525 27.5084 136.636 27.6863 135.675 27.8286C135.96 31.2085 135.995 35.0509 135.426 37.5769C135.106 39 133.932 39.6404 132.722 39.6404C131.441 39.6404 130.125 38.9288 129.805 37.5769C129.271 35.4067 129.022 31.7777 128.915 28.4334C127.99 28.469 127.03 28.5046 126.176 28.5046C124.361 28.5046 124.112 25.5872 126.105 25.1603C126.887 24.9824 127.884 24.8045 128.951 24.6622C129.022 23.3458 129.093 22.2785 129.235 21.6025ZM142.655 27.0459C143.616 24.1997 147.636 24.3064 148.241 27.0459C148.775 29.3585 149.13 34.3393 148.419 37.4702C147.814 40.3164 144.007 40.0318 142.833 37.4702C141.659 34.9086 142.05 28.7181 142.655 27.0459ZM145.857 23.7728C142.513 23.7728 142.406 19.7525 145.857 19.7525C149.237 19.7525 149.379 23.7728 145.857 23.7728ZM157.705 33.1653C158.239 34.4105 159.235 35.3355 160.872 35.3355C161.832 35.3355 163.042 35.0153 164.465 34.2326C164.749 34.0903 165.034 34.0191 165.319 34.0191C166.742 34.0191 167.631 35.8336 165.781 37.2211C164.002 38.5731 161.619 39.3202 159.306 39.3202C155.499 39.3202 151.942 37.2923 151.586 32.596C151.301 28.2911 153.685 23.4526 159.021 23.3103C162.65 23.168 165.425 24.8757 165.603 27.9354C165.781 31.5999 161.832 33.4499 157.705 33.1653ZM157.456 29.3585C157.919 29.5008 158.345 29.5719 158.701 29.5719C160.872 29.5719 160.872 27.2594 159.555 27.1527C158.523 27.0815 157.741 28.0777 157.456 29.3585Z" fill="#232323"/>
<path d="M67.3114 25.7259L69.6058 32.1653L68.5855 32.4935L66.6706 25.932L67.3114 25.7259Z" fill="url(#paint3_linear_182_492)"/>
<path d="M68.7071 32.6007L68.4296 32.6899L66.6346 25.924L66.7188 25.897L68.7071 32.6007Z" fill="url(#paint4_linear_182_492)"/>
<path d="M68.9367 32.6512L68.6592 32.7404L66.7617 25.8831L66.8477 25.8555L68.9367 32.6512Z" fill="url(#paint5_linear_182_492)"/>
<path d="M69.0826 32.3906L68.807 32.4792L66.8965 25.8394L66.9824 25.8118L69.0826 32.3906Z" fill="url(#paint6_linear_182_492)"/>
<path d="M69.5408 32.3324L69.8182 32.2431L67.352 25.6932L67.2661 25.7208L69.5408 32.3324Z" fill="url(#paint7_linear_182_492)"/>
<path d="M69.3194 32.3145L69.595 32.2258L67.2245 25.7339L67.1386 25.7616L69.3194 32.3145Z" fill="url(#paint8_linear_182_492)"/>
<path d="M69.1864 32.6045L69.4639 32.5152L67.0894 25.7777L67.0035 25.8054L69.1864 32.6045Z" fill="url(#paint9_linear_182_492)"/>
<path d="M61.1464 21.6812L74.8316 8.95859C75.0568 8.74989 75.3629 8.65144 75.6657 8.69032L94.2018 11.0492C94.4346 11.079 94.5105 11.3765 94.3218 11.5142L85.5924 17.883L72.1271 22.214L61.3218 22.1284C61.0881 22.1266 60.9758 21.8388 61.1481 21.6806L61.1464 21.6812Z" fill="url(#paint10_linear_182_492)"/>
<g filter="url(#filter0_d_182_492)">
<path d="M86.7719 13.455L89.5209 19.8528C82.5837 20.0595 78.4667 21.3397 70.6968 25.9074L69.0754 19.147C69.0754 19.147 74.5339 13.3365 86.7737 13.4544L86.7719 13.455Z" fill="url(#paint11_linear_182_492)"/>
</g>
<path d="M70.3545 24.4826L70.1848 23.7768C72.2666 22.0762 78.218 18.1297 88.7241 17.9974L89.0491 18.756C79.2647 19.1182 73.1921 22.4422 70.3545 24.4826Z" fill="url(#paint12_linear_182_492)"/>
<path d="M94.3218 11.5142L94.2385 11.5746L75.8401 9.23265C75.5355 9.19435 75.2294 9.29279 75.0061 9.50092L61.4229 22.1295L61.32 22.129C61.0863 22.1271 60.9746 21.8411 61.1464 21.6812L74.8316 8.95859C75.0568 8.74989 75.3611 8.65202 75.6657 8.69032L94.2018 11.0492C94.4346 11.079 94.5105 11.3765 94.3218 11.5142Z" fill="url(#paint13_linear_182_492)"/>
<path d="M64.5383 18.2184C64.6403 18.0749 64.8646 17.8882 65.3631 17.7615L64.7668 18.3147L66.9113 24.982L66.5998 25.0822L64.4945 18.5366C64.46 18.4292 64.4731 18.3104 64.5389 18.2201L64.5383 18.2184Z" fill="url(#paint14_linear_182_492)"/>
<path d="M66.6279 25.9833L67.4118 25.7312L66.9735 24.8412L66.4652 25.0047L66.6279 25.9833Z" fill="url(#paint15_linear_182_492)"/>
<rect x="47.252" y="26.6831" width="16.1211" height="4.4472" fill="#232323"/>
<defs>
<filter id="filter0_d_182_492" x="67.9088" y="13.397" width="22.7801" height="14.7896" filterUnits="userSpaceOnUse" color-interpolation-filters="sRGB">
<feFlood flood-opacity="0" result="BackgroundImageFix"/>
<feColorMatrix in="SourceAlpha" type="matrix" values="0 0 0 0 0 0 0 0 0 0 0 0 0 0 0 0 0 0 127 0" result="hardAlpha"/>
<feOffset dy="1.1118"/>
<feGaussianBlur stdDeviation="0.583695"/>
<feComposite in2="hardAlpha" operator="out"/>
<feColorMatrix type="matrix" values="0 0 0 0 0 0 0 0 0 0 0 0 0 0 0 0 0 0 0.25 0"/>
<feBlend mode="normal" in2="BackgroundImageFix" result="effect1_dropShadow_182_492"/>
<feBlend mode="normal" in="SourceGraphic" in2="effect1_dropShadow_182_492" result="shape"/>
</filter>
<linearGradient id="paint0_linear_182_492" x1="0.489445" y1="34.7507" x2="39.8899" y2="4.89447" gradientUnits="userSpaceOnUse">
<stop stop-color="#6787FD"/>
<stop offset="0.26" stop-color="#5E7BF5"/>
<stop offset="0.73" stop-color="#475DE1"/>
<stop offset="1" stop-color="#3749D4"/>
</linearGradient>
<linearGradient id="paint1_linear_182_492" x1="15.7053" y1="31.6593" x2="22.9949" y2="24.7211" gradientUnits="userSpaceOnUse">
<stop stop-color="#6787FD"/>
<stop offset="0.26" stop-color="#5E7BF5"/>
<stop offset="0.73" stop-color="#475DE1"/>
<stop offset="1" stop-color="#3749D4"/>
</linearGradient>
<linearGradient id="paint2_linear_182_492" x1="78.782" y1="16.0061" x2="79.789" y2="20.7237" gradientUnits="userSpaceOnUse">
<stop stop-color="#4B62B8"/>
<stop offset="0.28" stop-color="#475DB4"/>
<stop offset="0.57" stop-color="#3E51AA"/>
<stop offset="0.86" stop-color="#2E3D99"/>
<stop offset="1" stop-color="#25318F"/>
</linearGradient>
<linearGradient id="paint3_linear_182_492" x1="69.5483" y1="33.8349" x2="67.6165" y2="27.4113" gradientUnits="userSpaceOnUse">
<stop stop-color="#DABC69"/>
<stop offset="0.07" stop-color="#DAB663"/>
<stop offset="0.37" stop-color="#DAA352"/>
<stop offset="0.68" stop-color="#DA9747"/>
<stop offset="1" stop-color="#DA9444"/>
</linearGradient>
<linearGradient id="paint4_linear_182_492" x1="69.0407" y1="34.1722" x2="67.0681" y2="27.6095" gradientUnits="userSpaceOnUse">
<stop stop-color="#F0E37D"/>
<stop offset="0.08" stop-color="#F0DD76"/>
<stop offset="0.38" stop-color="#F0CD63"/>
<stop offset="0.68" stop-color="#F0C457"/>
<stop offset="1" stop-color="#F0C154"/>
</linearGradient>
<linearGradient id="paint5_linear_182_492" x1="69.2658" y1="34.2518" x2="67.2599" y2="27.5794" gradientUnits="userSpaceOnUse">
<stop stop-color="#F0E37D"/>
<stop offset="0.08" stop-color="#F0DD76"/>
<stop offset="0.38" stop-color="#F0CD63"/>
<stop offset="0.68" stop-color="#F0C457"/>
<stop offset="1" stop-color="#F0C154"/>
</linearGradient>
<linearGradient id="paint6_linear_182_492" x1="69.3992" y1="33.9458" x2="67.4513" y2="27.4661" gradientUnits="userSpaceOnUse">
<stop stop-color="#F0E37D"/>
<stop offset="0.08" stop-color="#F0DD76"/>
<stop offset="0.38" stop-color="#F0CD63"/>
<stop offset="0.68" stop-color="#F0C457"/>
<stop offset="1" stop-color="#F0C154"/>
</linearGradient>
<linearGradient id="paint7_linear_182_492" x1="70.1948" y1="33.8008" x2="67.9716" y2="27.3188" gradientUnits="userSpaceOnUse">
<stop stop-color="#F0E37D"/>
<stop offset="0.08" stop-color="#F0DD76"/>
<stop offset="0.38" stop-color="#F0CD63"/>
<stop offset="0.68" stop-color="#F0C457"/>
<stop offset="1" stop-color="#F0C154"/>
</linearGradient>
<linearGradient id="paint8_linear_182_492" x1="69.9688" y1="33.7627" x2="67.7734" y2="27.3606" gradientUnits="userSpaceOnUse">
<stop stop-color="#F0E37D"/>
<stop offset="0.08" stop-color="#F0DD76"/>
<stop offset="0.38" stop-color="#F0CD63"/>
<stop offset="0.68" stop-color="#F0C457"/>
<stop offset="1" stop-color="#F0C154"/>
</linearGradient>
<linearGradient id="paint9_linear_182_492" x1="69.8538" y1="34.1022" x2="67.5833" y2="27.4853" gradientUnits="userSpaceOnUse">
<stop stop-color="#F0E37D"/>
<stop offset="0.08" stop-color="#F0DD76"/>
<stop offset="0.38" stop-color="#F0CD63"/>
<stop offset="0.68" stop-color="#F0C457"/>
<stop offset="1" stop-color="#F0C154"/>
</linearGradient>
<linearGradient id="paint10_linear_182_492" x1="93.7082" y1="9.02948" x2="60.37" y2="19.7525" gradientUnits="userSpaceOnUse">
<stop stop-color="#3456D6"/>
<stop offset="0.33" stop-color="#3251D1"/>
<stop offset="0.69" stop-color="#2D45C4"/>
<stop offset="1" stop-color="#2736B3"/>
</linearGradient>
<linearGradient id="paint11_linear_182_492" x1="88.197" y1="15.7367" x2="69.3729" y2="21.7913" gradientUnits="userSpaceOnUse">
<stop stop-color="#6787FD"/>
<stop offset="0.26" stop-color="#5E7BF5"/>
<stop offset="0.73" stop-color="#475DE1"/>
<stop offset="1" stop-color="#3749D4"/>
</linearGradient>
<linearGradient id="paint12_linear_182_492" x1="88.6663" y1="17.5657" x2="70.0551" y2="23.5519" gradientUnits="userSpaceOnUse">
<stop stop-color="#F0E37D"/>
<stop offset="0.08" stop-color="#F0DD76"/>
<stop offset="0.38" stop-color="#F0CD63"/>
<stop offset="0.68" stop-color="#F0C457"/>
<stop offset="1" stop-color="#F0C154"/>
</linearGradient>
<linearGradient id="paint13_linear_182_492" x1="93.1941" y1="7.43112" x2="59.8559" y2="18.1541" gradientUnits="userSpaceOnUse">
<stop stop-color="#6787FD"/>
<stop offset="0.26" stop-color="#5E7BF5"/>
<stop offset="0.73" stop-color="#475DE1"/>
<stop offset="1" stop-color="#3749D4"/>
</linearGradient>
<linearGradient id="paint14_linear_182_492" x1="67.4611" y1="26.5748" x2="65.3846" y2="19.6644" gradientUnits="userSpaceOnUse">
<stop stop-color="#F0E37D"/>
<stop offset="0.08" stop-color="#F0DD76"/>
<stop offset="0.38" stop-color="#F0CD63"/>
<stop offset="0.68" stop-color="#F0C457"/>
<stop offset="1" stop-color="#F0C154"/>
</linearGradient>
<linearGradient id="paint15_linear_182_492" x1="67.0882" y1="26.0822" x2="66.8079" y2="25.1492" gradientUnits="userSpaceOnUse">
<stop stop-color="#F0E37D"/>
<stop offset="0.08" stop-color="#F0DD76"/>
<stop offset="0.38" stop-color="#F0CD63"/>
<stop offset="0.68" stop-color="#F0C457"/>
<stop offset="1" stop-color="#F0C154"/>
</linearGradient>
</defs>
</svg>
