<svg width="146" height="111" viewBox="0 0 146 111" fill="none" xmlns="http://www.w3.org/2000/svg">
<path d="M138.338 76.8371L95.076 101.987C85.8635 107.35 70.8635 107.35 61.5885 101.987L18.0385 76.8496C13.3635 74.1496 11.0385 70.6121 11.051 67.0871V72.0871C11.026 75.6246 13.3635 79.1621 18.026 81.8496L61.576 106.987C70.851 112.35 85.8385 112.35 95.0635 106.987L138.326 81.8371C142.901 79.1746 145.201 75.6996 145.201 72.2121V67.2121C145.201 70.6996 142.913 74.1871 138.338 76.8371Z" fill="#44C4FF"/>
<path d="M138.239 57.4371C147.514 62.7996 147.564 71.4746 138.352 76.8371L95.0892 101.987C85.8767 107.35 70.8767 107.35 61.6017 101.987L18.0517 76.8496C8.7767 71.4871 8.7267 62.8121 17.9392 57.4496L61.2017 32.2996C70.4142 26.9371 85.4142 26.9371 94.6892 32.2996L138.239 57.4371Z" fill="#F5FBFF"/>
<path d="M7.57515 11.6746C12.1876 9.01209 14.8376 12.2121 14.8626 20.2246C14.8876 28.7871 12.1251 35.0996 7.27515 37.8996C3.00015 40.3746 0.0876472 37.4371 0.000147174 29.1496C-0.0248528 20.7121 3.13765 14.2371 7.57515 11.6621V11.6746ZM7.43765 35.1746C10.4626 33.4246 11.9001 28.5246 11.8876 22.0996C11.8751 15.6746 10.4751 12.6371 7.41265 14.3996C4.82515 15.8996 2.93765 20.6246 2.96265 27.4871C2.98765 34.3496 4.75015 36.7371 7.45015 35.1746" fill="#3598C5"/>
<path d="M26.8508 0.974976L26.9258 26.1375L24.0633 27.8L24.0008 5.79998L23.9258 5.83748L20.1258 10.4L19.5508 8.13748L24.3258 2.43748L26.8508 0.974976Z" fill="#3598C5"/>
<path d="M100.487 68.5031C104.111 58.5963 99.017 47.6279 89.1102 44.0045C79.2034 40.3811 68.235 45.4748 64.6115 55.3816C60.9881 65.2884 66.0818 76.2568 75.9886 79.8802C85.8954 83.5036 96.8638 78.4099 100.487 68.5031Z" stroke="#44C4FF" stroke-width="1.25" stroke-miterlimit="10"/>
<path d="M82.4627 73.3875C76.1502 73.3375 71.0752 68.175 71.1252 61.8625C71.1752 55.55 76.3377 50.475 82.6502 50.525C88.9627 50.575 94.0377 55.7375 93.9877 62.05C93.9377 68.3625 88.7752 73.4375 82.4627 73.3875Z" stroke="#44C4FF" stroke-width="1.25" stroke-miterlimit="10"/>
<path d="M82.5135 67.4628C79.476 67.4378 77.026 64.9503 77.051 61.9128C77.076 58.8753 79.5635 56.4253 82.601 56.4503C85.6385 56.4753 88.0885 58.9628 88.0635 62.0003C88.0385 65.0378 85.551 67.4878 82.5135 67.4628Z" stroke="#44C4FF" stroke-width="1.25" stroke-miterlimit="10"/>
<path d="M82.5637 61.9506L82.3262 90.0756" stroke="#44C4FF" stroke-width="1.25" stroke-miterlimit="10"/>
<path d="M82.375 84.7504L86.925 89.3879" stroke="#44C4FF" stroke-width="1.25" stroke-miterlimit="10"/>
<path d="M82.6387 84.7504L78.0137 89.3129" stroke="#44C4FF" stroke-width="1.25" stroke-miterlimit="10"/>
<path d="M82.3379 89.3505L86.8879 93.988" stroke="#44C4FF" stroke-width="1.25" stroke-miterlimit="10"/>
<path d="M82.6016 89.3505L77.9766 93.913" stroke="#44C4FF" stroke-width="1.25" stroke-miterlimit="10"/>
</svg>
