<svg width="145" height="111" viewBox="0 0 145 111" fill="none" xmlns="http://www.w3.org/2000/svg">
<path d="M137.839 76.8374L94.5761 101.987C85.3636 107.35 70.3636 107.35 61.0886 101.987L17.5386 76.8499C12.8761 74.1499 10.5386 70.6124 10.5511 67.0874V72.0874C10.5261 75.6249 12.8635 79.1624 17.526 81.8499L61.0761 106.987C70.3511 112.35 85.3386 112.35 94.5636 106.987L137.826 81.8374C142.401 79.1749 144.701 75.6999 144.701 72.2124V67.2124C144.701 70.6999 142.414 74.1874 137.839 76.8374Z" fill="#FF445B"/>
<path d="M137.726 57.4375C147.001 62.8 147.051 71.475 137.838 76.8375L94.5757 101.988C85.3632 107.35 70.3632 107.35 61.0882 101.988L17.5382 76.85C8.26319 71.4875 8.21323 62.8125 17.4257 57.45L60.6882 32.3C69.9007 26.9375 84.9007 26.9375 94.1757 32.3L137.726 57.4375Z" fill="#FFF5F5"/>
<path d="M7.92472 12.8875C12.5497 10.225 15.1872 13.425 15.2122 21.4375C15.2372 30 12.4872 36.3125 7.63725 39.1125C3.36225 41.5875 0.449726 38.65 0.349726 30.3625C0.324726 21.925 3.48722 15.45 7.92472 12.875V12.8875ZM7.78724 36.3875C10.8247 34.6375 12.2622 29.7375 12.2372 23.3C12.2122 16.8625 10.8247 13.8375 7.7497 15.6125C5.1622 17.1125 3.28721 21.8375 3.29971 28.6875C3.31221 35.5375 5.07473 37.9375 7.77473 36.3875" fill="#C53546"/>
<path d="M30.9758 0.0125V2.875L22.6258 7.7L21.8008 14.65C22.3008 14.2875 22.7758 13.9375 23.5758 13.4625C25.2633 12.4875 26.9508 11.95 28.3008 12.1C30.0258 12.225 31.4508 13.5875 31.4508 16.75C31.4633 21.6625 28.0758 27.3125 23.3133 30.05C20.9258 31.425 18.9008 31.825 17.8633 31.65L18.5883 28.6375C19.5008 28.725 21.2883 28.475 23.2758 27.325C26.0758 25.7125 28.4633 22.2375 28.4508 18.8625C28.4133 15.6375 26.5258 14.3875 22.1383 16.925C20.8883 17.65 19.9133 18.3625 19.1008 18.95L20.4758 6.05L30.9508 0L30.9758 0.0125Z" fill="#C53546"/>
<path d="M91.5754 69.1623V76.2498C91.5754 78.9998 89.3504 81.2248 86.6004 81.2248H68.3754C65.6254 81.2248 63.4004 78.9998 63.4004 76.2498V58.0248C63.4004 55.2748 65.6254 53.0498 68.3754 53.0498H86.6004C88.3129 53.0498 89.8379 53.9248 90.7254 55.2498" stroke="#FF4B44" stroke-width="1.25" stroke-linecap="round" stroke-linejoin="round"/>
<path d="M72.8008 68.1119L78.2008 73.5119L94.3508 58.7119" stroke="#FF4B44" stroke-width="1.25" stroke-linecap="round" stroke-linejoin="round"/>
</svg>
