<svg width="145" height="109" viewBox="0 0 145 109" fill="none" xmlns="http://www.w3.org/2000/svg">
<path d="M137.688 74.7378L94.4256 99.8878C85.2131 105.25 70.2131 105.25 60.9381 99.8878L17.3881 74.7503C12.7256 72.0503 10.3881 68.5128 10.4006 64.9878V69.9878C10.3756 73.5253 12.7131 77.0628 17.3756 79.7503L60.9256 104.9C70.2006 110.263 85.1881 110.263 94.4131 104.9L137.676 79.7503C142.251 77.0878 144.551 73.6128 144.551 70.1253V65.1253C144.551 68.6128 142.263 72.1003 137.688 74.7503V74.7378Z" fill="#5044FF"/>
<path d="M137.575 55.3381C146.85 60.7006 146.9 69.3756 137.688 74.7381L94.4251 99.8881C85.2126 105.251 70.2126 105.251 60.9376 99.8881L17.3876 74.7506C8.11264 69.3881 8.06263 60.7131 17.2751 55.3506L60.5376 30.2006C69.7501 24.8381 84.7501 24.8381 94.0251 30.2006L137.575 55.3381Z" fill="#F6F5FF"/>
<path d="M7.87397 10.9379C12.499 8.27536 15.1365 11.4629 15.1615 19.4879C15.1865 28.0504 12.4365 34.3629 7.58646 37.1629C3.31146 39.6379 0.398975 36.7004 0.298975 28.4129C0.273975 19.9754 3.43647 13.5004 7.87397 10.9379ZM7.73647 34.4254C10.774 32.6754 12.199 27.7754 12.1865 21.3504C12.174 14.9254 10.774 11.9004 7.71147 13.6629C5.12397 15.1629 3.24897 19.8754 3.26147 26.7379C3.27397 33.6004 5.03647 35.9879 7.73647 34.4254Z" fill="#3E35C5"/>
<path d="M24.5865 1.28787C29.299 -1.43713 31.3115 1.12537 31.324 4.72537C31.3365 9.37537 28.4115 14.8254 23.8115 22.6004L22.0614 25.4629V25.5504L31.899 19.8629V22.6879L17.924 30.7629V28.6754L20.2365 24.7379C25.8115 15.3879 28.3365 10.6879 28.3615 6.86287C28.3615 4.30037 27.274 2.57537 23.999 4.46287C22.0115 5.61287 20.374 7.71287 19.3615 9.27537L18.4114 7.41288C19.9239 5.07538 22.0739 2.73787 24.5989 1.28787H24.5865Z" fill="#3E35C5"/>
<path d="M87.9859 51.6377H64.5984C61.2359 51.6377 58.5234 54.3627 58.5234 57.7127V69.3627C58.5234 72.7252 61.2484 75.4377 64.5984 75.4377H67.4109V82.6252L75.961 75.4377H87.9984C91.3609 75.4377 94.0735 72.7127 94.0735 69.3627V57.7127C94.0735 54.3502 91.3484 51.6377 87.9984 51.6377H87.9859Z" stroke="#5044FF" stroke-width="1.25" stroke-linecap="round" stroke-linejoin="round"/>
<path d="M71.1609 64.0127C71.1609 65.2377 70.1609 66.2377 68.9359 66.2377C67.7109 66.2377 66.7109 65.2377 66.7109 64.0127C66.7109 62.7877 67.7109 61.7877 68.9359 61.7877C70.1609 61.7877 71.1609 62.7877 71.1609 64.0127Z" stroke="#5044FF" stroke-width="1.25" stroke-linecap="round" stroke-linejoin="round"/>
<path d="M78.6492 64.0126C78.6492 65.2376 77.6492 66.2376 76.4242 66.2376C75.1992 66.2376 74.1992 65.2376 74.1992 64.0126C74.1992 62.7876 75.1992 61.7876 76.4242 61.7876C77.6492 61.7876 78.6492 62.7876 78.6492 64.0126Z" stroke="#5044FF" stroke-width="1.25" stroke-linecap="round" stroke-linejoin="round"/>
<path d="M86.1355 64.0126C86.1355 65.2376 85.1355 66.2376 83.9105 66.2376C82.6855 66.2376 81.6855 65.2376 81.6855 64.0126C81.6855 62.7876 82.6855 61.7876 83.9105 61.7876C85.1355 61.7876 86.1355 62.7876 86.1355 64.0126Z" stroke="#5044FF" stroke-width="1.25" stroke-linecap="round" stroke-linejoin="round"/>
</svg>
