<svg width="145" height="111" viewBox="0 0 145 111" fill="none" xmlns="http://www.w3.org/2000/svg">
<path d="M137.839 76.7376L94.576 101.888C85.3635 107.25 70.3635 107.25 61.0885 101.888L17.5385 76.7501C12.876 74.0501 10.5385 70.5126 10.551 66.9876V71.9876C10.526 75.5251 12.8635 79.0626 17.526 81.7501L61.076 106.9C70.351 112.263 85.3385 112.263 94.5635 106.9L137.826 81.7501C142.401 79.0876 144.701 75.6126 144.701 72.1251V67.1251C144.701 70.6126 142.414 74.1001 137.839 76.7501V76.7376Z" fill="#FF44A0"/>
<path d="M137.739 57.3376C147.014 62.7001 147.064 71.3751 137.852 76.7376L94.5892 101.888C85.3767 107.25 70.3767 107.25 61.1017 101.888L17.5517 76.7501C8.27671 71.3876 8.22668 62.7126 17.4392 57.3501L60.7017 32.2001C69.9142 26.8376 84.9142 26.8376 94.1892 32.2001L137.739 57.3376Z" fill="#FFF5F9"/>
<path d="M8.25068 13.2376C12.8757 10.5751 15.5131 13.7626 15.5381 21.7876C15.5631 30.3501 12.8131 36.6626 7.96313 39.4626C3.68813 41.9376 0.775684 39.0001 0.675684 30.7126C0.650684 22.2751 3.81318 15.8001 8.25068 13.2376ZM8.11312 36.7251C11.1506 34.9751 12.5881 30.0751 12.5631 23.6376C12.5381 17.2001 11.1507 14.1876 8.07566 15.9501C5.48816 17.4501 3.61317 22.1626 3.62567 29.0251C3.63817 35.8876 5.40069 38.2751 8.10069 36.7126" fill="#C5357C"/>
<path d="M30.2259 16.6251L33.2884 14.8501V17.5251L30.2259 19.3001L30.2509 26.1501L27.451 27.7626L27.4259 20.9126L17.2634 26.7876V24.5376L26.976 2.8251L30.1759 0.975098L30.2259 16.6126V16.6251ZM27.401 9.8376C27.401 8.5251 27.4384 7.1876 27.4884 5.8376L27.3885 5.9001C26.726 7.7501 26.1885 9.1501 25.576 10.6626L20.2509 22.3126V22.3876L27.4259 18.2501L27.401 9.8501" fill="#C5357C"/>
<path d="M91.6125 70.6877C91.6125 70.6002 91.6375 70.5252 91.6625 70.4252L95.4 69.6627V64.2502L91.375 63.4502C91.35 63.3502 91.3375 63.2752 91.3 63.1877C90.95 62.0627 90.4625 60.9877 89.85 60.0127C89.8125 59.9627 89.775 59.9002 89.75 59.8502V59.8252L92.1125 56.3002L88.2875 52.4752L84.7625 54.8252L84.6 54.9877C84.525 54.9502 84.4625 54.9127 84.4 54.8752C83.45 54.3502 82.4375 53.9627 81.375 53.6752C81.2625 53.6502 81.15 53.6127 81.0375 53.6002L80.3375 49.2002H74.925L74.225 53.6002C74.1125 53.6252 74 53.6502 73.9 53.6752C72.825 53.9627 71.8125 54.3627 70.8625 54.8877C70.7625 54.9502 70.65 55.0002 70.55 55.0627L66.9875 52.4877L63.1625 56.3127L65.6375 59.7002C65.575 59.8002 65.5125 59.8752 65.4625 59.9627C64.8375 60.9877 64.325 62.0877 63.9625 63.2502C63.925 63.3627 63.8875 63.5002 63.8625 63.6127L59.875 64.2377V69.6502L63.5875 70.2502C63.6 70.3502 63.625 70.4502 63.6375 70.5377C63.925 71.9127 64.425 73.2002 65.075 74.3877C65.1375 74.5002 65.2 74.6002 65.2625 74.7002L63.1625 77.6127L66.9875 81.4377L69.75 79.4377C69.8375 79.5002 69.9125 79.5502 70.0125 79.6127C71.2 80.3627 72.5125 80.9502 73.9125 81.3252C74.025 81.3502 74.15 81.3752 74.2875 81.4127L74.95 84.7127H80.3625L81.0375 81.4127C81.15 81.3752 81.275 81.3502 81.4 81.3252C82.7375 80.9627 84 80.4127 85.15 79.7127C85.2375 79.6502 85.3375 79.5877 85.425 79.5127L88.3 81.4377L92.125 77.6127L90.1 74.5627C90.15 74.4502 90.2125 74.3502 90.275 74.2627C90.875 73.1502 91.3375 71.9377 91.625 70.6752L91.6125 70.6877ZM84.9875 67.5002C84.9875 71.5752 81.6875 74.8627 77.6125 74.8627C73.5375 74.8627 70.25 71.5752 70.25 67.5002C70.25 63.4252 73.5375 60.1377 77.6125 60.1377C81.6875 60.1377 84.9875 63.4377 84.9875 67.5002Z" stroke="#FF44D6" stroke-width="1.25" stroke-linecap="round" stroke-linejoin="round"/>
</svg>
