<svg width="145" height="109" viewBox="0 0 145 109" fill="none" xmlns="http://www.w3.org/2000/svg">
<path d="M137.501 74.8379L94.2381 99.9879C85.0256 105.35 70.0256 105.35 60.7506 99.9879L17.2006 74.8504C12.5381 72.1504 10.2006 68.6129 10.2131 65.0879V70.0879C10.1881 73.6254 12.5256 77.1629 17.1881 79.8504L60.7381 104.988C70.0131 110.35 85.0006 110.35 94.2256 104.988L137.488 79.8379C142.063 77.1754 144.363 73.7004 144.363 70.2129V65.2129C144.363 68.7004 142.076 72.1879 137.501 74.8379Z" fill="#852DEE"/>
<path d="M137.388 55.4377C146.663 60.8002 146.713 69.4752 137.5 74.8377L94.2376 99.9877C85.0251 105.35 70.0251 105.35 60.7501 99.9877L17.2001 74.8502C7.92513 69.4877 7.87514 60.8127 17.0876 55.4502L60.3501 30.3002C69.5626 24.9377 84.5626 24.9377 93.8376 30.3002L137.388 55.4377Z" fill="#F5F0FA"/>
<path d="M7.60053 10.9126C12.213 8.25012 14.8631 11.4501 14.8881 19.4626C14.9131 28.0251 12.1506 34.3376 7.31306 37.1376C3.02556 39.6126 0.113038 36.6751 0.0255378 28.3876C0.0005378 19.9501 3.16303 13.4751 7.60053 10.9001V10.9126ZM7.46305 34.4126C10.5006 32.6626 11.9255 27.7626 11.913 21.3376C11.9005 14.9126 10.5006 11.8751 7.43807 13.6376C4.85057 15.1376 2.96303 19.8626 2.98803 26.7251C3.01303 33.5876 4.77557 35.9751 7.47557 34.4126" fill="#6723B8"/>
<path d="M24.0505 1.41262C28.363 -1.07488 30.3255 0.737617 30.338 3.80012C30.338 6.40012 29.0005 9.37512 26.313 12.0626V12.1376C29.013 11.2001 31.2005 12.2626 31.213 15.7876C31.213 19.8126 28.5005 24.9126 23.2505 27.9376C20.788 29.3626 18.6255 29.7126 17.5505 29.5251L18.3505 26.4251C19.2005 26.5626 21.1505 26.4001 23.213 25.2251C27.0255 23.0251 28.188 19.5626 28.1505 17.4876C28.113 13.9751 25.338 14.0626 22.4755 15.7251L20.8255 16.6751V14.1126L22.4755 13.1626C24.6255 11.9126 27.3505 9.06262 27.3505 6.08762C27.3505 4.07512 26.2255 2.92512 23.5005 4.51262C21.7505 5.52512 20.063 7.38762 19.1255 8.71262L18.3505 6.67512C19.488 5.05012 21.713 2.80012 24.063 1.43762L24.0505 1.41262Z" fill="#6723B8"/>
<path d="M94.3 66.9529C95.9775 57.0773 89.3315 47.7117 79.4559 46.0343C69.5803 44.3569 60.2147 51.0028 58.5373 60.8784C56.8598 70.754 63.5058 80.1197 73.3814 81.7971C83.257 83.4745 92.6226 76.8286 94.3 66.9529Z" stroke="#AC44FF" stroke-width="1.25" stroke-linecap="round" stroke-linejoin="round"/>
<path d="M89.0359 66.0567C90.2244 59.0671 85.5216 52.4374 78.532 51.2489C71.5424 50.0604 64.9127 54.7632 63.7242 61.7528C62.5357 68.7424 67.2385 75.3721 74.2281 76.5606C81.2178 77.7491 87.8474 73.0463 89.0359 66.0567Z" stroke="#AC44FF" stroke-width="1.25" stroke-linecap="round" stroke-linejoin="round"/>
<path d="M76.2859 68.8013V55.165H77.1594V68.8013H76.2859ZM79.2262 59.2559C79.1623 58.7161 78.903 58.2971 78.4485 57.9988C77.994 57.7005 77.4364 57.5513 76.7759 57.5513C76.293 57.5513 75.8704 57.6294 75.5082 57.7857C75.1495 57.9419 74.869 58.1568 74.6665 58.4302C74.4677 58.7037 74.3682 59.0144 74.3682 59.3624C74.3682 59.6536 74.4375 59.9039 74.576 60.1135C74.718 60.3194 74.8991 60.4917 75.1193 60.6302C75.3395 60.7651 75.5703 60.877 75.8118 60.9657C76.0533 61.051 76.2752 61.1202 76.4776 61.1735L77.5856 61.4718C77.8697 61.5463 78.1857 61.6493 78.5337 61.7807C78.8853 61.9121 79.2209 62.0914 79.5405 62.3187C79.8636 62.5424 80.13 62.8301 80.3395 63.1816C80.549 63.5332 80.6538 63.9647 80.6538 64.476C80.6538 65.0655 80.4993 65.5982 80.1903 66.074C79.8849 66.5499 79.4375 66.9281 78.848 67.2086C78.2621 67.4892 77.5501 67.6294 76.712 67.6294C75.9307 67.6294 75.2543 67.5034 74.6825 67.2512C74.1143 66.9991 73.6669 66.6476 73.3402 66.1966C73.017 65.7456 72.8342 65.2218 72.7915 64.6252H74.1552C74.1907 65.0371 74.3292 65.378 74.5707 65.6479C74.8157 65.9142 75.1246 66.1131 75.4975 66.2445C75.8739 66.3723 76.2788 66.4363 76.712 66.4363C77.2163 66.4363 77.669 66.3546 78.0703 66.1912C78.4716 66.0243 78.7894 65.7935 79.0238 65.4988C79.2582 65.2005 79.3753 64.8525 79.3753 64.4547C79.3753 64.0925 79.2741 63.7978 79.0717 63.5705C78.8693 63.3432 78.603 63.1586 78.2727 63.0165C77.9425 62.8745 77.5856 62.7502 77.2021 62.6436L75.8597 62.2601C75.0075 62.0151 74.3327 61.6653 73.8356 61.2108C73.3384 60.7562 73.0898 60.1614 73.0898 59.4263C73.0898 58.8155 73.255 58.2829 73.5852 57.8283C73.919 57.3702 74.3665 57.0151 74.9276 56.763C75.4922 56.5073 76.1225 56.3794 76.8185 56.3794C77.5217 56.3794 78.1467 56.5055 78.6935 56.7576C79.2404 57.0062 79.6736 57.3471 79.9932 57.7804C80.3164 58.2136 80.4869 58.7054 80.5046 59.2559H79.2262Z" fill="#AC44FF"/>
</svg>
