<svg width="338" height="97" viewBox="0 0 338 97" fill="none" xmlns="http://www.w3.org/2000/svg">
<path d="M134.389 36.3824C106.782 37.8099 92.3394 50.8341 92.3394 50.8341C92.3394 50.8341 111.102 52.9288 134.389 36.3824Z" fill="url(#paint0_linear_42_3607)"/>
<path d="M112.672 59.4138H115.797C119.651 59.4138 122.294 58.9971 123.727 58.1638C125.159 57.3044 125.875 55.8331 125.875 53.7497C125.875 51.5883 125.198 50.0779 123.844 49.2185C122.516 48.3331 119.911 47.8904 116.031 47.8904H112.672V59.4138ZM98.2188 93.7498V36.5622H113.883C120.341 36.5622 124.846 36.7706 127.398 37.1872C129.977 37.6039 132.19 38.32 134.039 39.3357C136.148 40.5075 137.75 42.0831 138.844 44.0622C139.964 46.0154 140.523 48.281 140.523 50.8591C140.523 54.1143 139.69 56.7055 138.023 58.6326C136.383 60.5336 133.753 61.9789 130.133 62.9685C134.195 63.281 137.372 64.7133 139.664 67.2654C141.956 69.7914 143.102 73.1768 143.102 77.4216C143.102 80.4685 142.451 83.1508 141.148 85.4685C139.872 87.7862 138.036 89.5831 135.641 90.8591C133.688 91.9008 131.279 92.643 128.414 93.0857C125.549 93.5284 120.862 93.7498 114.352 93.7498H98.2188ZM112.672 82.0701H118.141C121.839 82.0701 124.456 81.6143 125.992 80.7029C127.529 79.7654 128.297 78.2159 128.297 76.0544C128.297 73.6586 127.594 71.9919 126.188 71.0544C124.781 70.0909 122.177 69.6091 118.375 69.6091H112.672V82.0701ZM178.727 68.9451C178.466 66.7055 177.607 64.9086 176.148 63.5544C174.716 62.2003 172.945 61.5232 170.836 61.5232C168.57 61.5232 166.76 62.1482 165.406 63.3982C164.078 64.6221 163.193 66.4711 162.75 68.9451H178.727ZM192.438 76.7966H162.438C162.464 79.8435 163.245 82.2003 164.781 83.8669C166.318 85.5076 168.492 86.3279 171.305 86.3279C173.414 86.3279 175.185 85.9373 176.617 85.156C178.076 84.3487 179.182 83.1638 179.938 81.6013L190.406 85.8201C189.156 88.8409 186.943 91.1716 183.766 92.8123C180.589 94.4529 176.695 95.2732 172.086 95.2732C165.211 95.2732 159.69 93.3722 155.523 89.5701C151.383 85.7419 149.313 80.7029 149.313 74.4529C149.313 68.307 151.383 63.2029 155.523 59.1404C159.69 55.0779 164.951 53.0466 171.305 53.0466C177.841 53.0466 182.997 55.1039 186.773 59.2185C190.55 63.3331 192.438 68.9711 192.438 76.1326V76.7966ZM196.773 90.4685L199.664 79.8435C201.695 81.6143 203.922 82.9815 206.344 83.9451C208.792 84.8826 211.253 85.3513 213.727 85.3513C215.471 85.3513 216.8 85.0779 217.711 84.531C218.622 83.9581 219.078 83.1378 219.078 82.0701C219.078 80.3253 217.242 79.0232 213.57 78.1638C212.372 77.8774 211.409 77.63 210.68 77.4216C206.513 76.2758 203.479 74.7784 201.578 72.9294C199.703 71.0544 198.766 68.6326 198.766 65.6638C198.766 61.8357 200.198 58.7758 203.063 56.4841C205.953 54.1924 209.859 53.0466 214.781 53.0466C217.307 53.0466 219.872 53.3461 222.477 53.945C225.107 54.518 227.789 55.4164 230.524 56.6404L227.633 66.2107C225.784 64.9607 223.909 64.0102 222.008 63.3591C220.107 62.7081 218.206 62.3826 216.305 62.3826C214.716 62.3826 213.518 62.6299 212.711 63.1247C211.904 63.6195 211.5 64.3357 211.5 65.2732C211.5 66.6794 213.323 67.8643 216.969 68.8279C217.802 69.0622 218.427 69.2315 218.844 69.3357C223.662 70.7159 227.008 72.3435 228.883 74.2185C230.784 76.0675 231.734 78.5805 231.734 81.7576C231.734 85.794 230.185 89.0623 227.086 91.5623C223.987 94.0362 219.885 95.2732 214.781 95.2732C211.318 95.2732 208.102 94.8695 205.133 94.0623C202.164 93.281 199.378 92.0831 196.773 90.4685ZM241.344 93.7498V64.1404H235.445V54.2966H241.344V42.5388H255.055V54.2966H260.953V64.1404H255.055V93.7498H241.344ZM267.164 41.9919C267.164 39.8825 267.906 38.0857 269.391 36.6013C270.901 35.1169 272.711 34.3747 274.82 34.3747C277.008 34.3747 278.831 35.1039 280.289 36.5622C281.774 38.0206 282.516 39.8305 282.516 41.9919C282.516 44.1534 281.761 45.9893 280.25 47.4997C278.766 49.0102 276.956 49.7654 274.82 49.7654C272.737 49.7654 270.94 48.9971 269.43 47.4607C267.919 45.9242 267.164 44.1013 267.164 41.9919ZM267.867 93.7498V54.2966H281.813V93.7498H267.867ZM319.664 68.9451C319.404 66.7055 318.544 64.9086 317.086 63.5544C315.654 62.2003 313.883 61.5232 311.774 61.5232C309.508 61.5232 307.698 62.1482 306.344 63.3982C305.016 64.6221 304.13 66.4711 303.688 68.9451H319.664ZM333.375 76.7966H303.375C303.401 79.8435 304.182 82.2003 305.719 83.8669C307.255 85.5076 309.43 86.3279 312.242 86.3279C314.352 86.3279 316.123 85.9373 317.555 85.156C319.013 84.3487 320.12 83.1638 320.875 81.6013L331.344 85.8201C330.094 88.8409 327.88 91.1716 324.703 92.8123C321.526 94.4529 317.633 95.2732 313.024 95.2732C306.149 95.2732 300.628 93.3722 296.461 89.5701C292.32 85.7419 290.25 80.7029 290.25 74.4529C290.25 68.307 292.32 63.2029 296.461 59.1404C300.628 55.0779 305.888 53.0466 312.242 53.0466C318.779 53.0466 323.935 55.1039 327.711 59.2185C331.487 63.3331 333.375 68.9711 333.375 76.1326V76.7966Z" fill="#16072F"/>
<path d="M18.3438 35.5625H33.8906V72.6719C33.8906 76.7083 33.6302 79.8073 33.1094 81.9687C32.5886 84.1302 31.7292 86.0443 30.5313 87.7109C28.9427 89.8724 26.9896 91.513 24.6719 92.6328C22.3542 93.7266 19.75 94.2734 16.8594 94.2734C13.2656 94.2734 10.0625 93.5052 7.25 91.9687C4.4375 90.4323 2.02865 88.1536 0.023437 85.1328L9.55469 76.5C9.78907 78.1927 10.3359 79.4948 11.1953 80.4062C12.0547 81.3177 13.1354 81.7734 14.4375 81.7734C15.9219 81.7734 16.9375 80.9531 17.4844 79.3125C18.0573 77.6719 18.3438 73.5703 18.3438 67.0078V35.5625ZM53.3985 79.4687V66.7344H79.961V79.4687H53.3985Z" fill="#16072F"/>
<path d="M84.3284 50.2693L89.4875 64.7489L87.1934 65.4868L82.8876 50.7328L84.3284 50.2693Z" fill="url(#paint1_linear_42_3607)"/>
<path d="M87.467 65.7278L86.8432 65.9284L82.8069 50.7147L82.9961 50.6538L87.467 65.7278Z" fill="url(#paint2_linear_42_3607)"/>
<path d="M87.9825 65.8415L87.3587 66.0421L83.092 50.6227L83.2852 50.5605L87.9825 65.8415Z" fill="url(#paint3_linear_42_3607)"/>
<path d="M88.3144 65.2553L87.6946 65.4547L83.3986 50.5243L83.5918 50.4622L88.3144 65.2553Z" fill="url(#paint4_linear_42_3607)"/>
<path d="M89.3415 65.1248L89.9654 64.9241L84.4198 50.1958L84.2267 50.2579L89.3415 65.1248Z" fill="url(#paint5_linear_42_3607)"/>
<path d="M88.844 65.0845L89.4638 64.8851L84.1335 50.2874L83.9403 50.3495L88.844 65.0845Z" fill="url(#paint6_linear_42_3607)"/>
<path d="M88.5428 65.7366L89.1666 65.5359L83.8274 50.3859L83.6342 50.4481L88.5428 65.7366Z" fill="url(#paint7_linear_42_3607)"/>
<path d="M70.4644 41.1744L101.237 12.5663C101.744 12.097 102.432 11.8756 103.113 11.963L144.793 17.2672C145.317 17.3342 145.487 18.0032 145.063 18.3129L125.434 32.6337L95.1559 42.3724L70.8589 42.18C70.3335 42.1758 70.081 41.5287 70.4685 41.1731L70.4644 41.1744Z" fill="url(#paint8_linear_42_3607)"/>
<g filter="url(#filter0_d_42_3607)">
<path d="M128.085 22.6769L134.267 37.063C118.667 37.5278 109.41 40.4064 91.9385 50.6775L88.2925 35.4759C88.2925 35.4759 100.567 22.4104 128.089 22.6756L128.085 22.6769Z" fill="url(#paint9_linear_42_3607)"/>
</g>
<path d="M91.1698 47.4737L90.7881 45.8867C95.4693 42.0628 108.852 33.1886 132.476 32.8912L133.207 34.5969C111.205 35.4115 97.5503 42.8856 91.1698 47.4737Z" fill="url(#paint10_linear_42_3607)"/>
<path d="M145.063 18.3129L144.876 18.4487L103.505 13.1825C102.82 13.0964 102.132 13.3178 101.629 13.7858L71.0862 42.1824L70.8549 42.1813C70.3295 42.1771 70.0782 41.534 70.4644 41.1744L101.237 12.5663C101.744 12.097 102.428 11.8769 103.113 11.963L144.793 17.2672C145.317 17.3342 145.487 18.0032 145.063 18.3129Z" fill="url(#paint11_linear_42_3607)"/>
<path d="M78.0907 33.3878C78.3201 33.0653 78.8245 32.6455 79.9453 32.3605L78.6045 33.6045L83.4266 48.5966L82.7263 48.8218L77.9922 34.1034C77.9146 33.8619 77.9441 33.5948 78.092 33.3918L78.0907 33.3878Z" fill="url(#paint12_linear_42_3607)"/>
<path d="M82.7899 50.8481L84.5527 50.2811L83.567 48.2799L82.424 48.6475L82.7899 50.8481Z" fill="url(#paint13_linear_42_3607)"/>
<defs>
<filter id="filter0_d_42_3607" x="85.668" y="22.5466" width="51.2227" height="33.2559" filterUnits="userSpaceOnUse" color-interpolation-filters="sRGB">
<feFlood flood-opacity="0" result="BackgroundImageFix"/>
<feColorMatrix in="SourceAlpha" type="matrix" values="0 0 0 0 0 0 0 0 0 0 0 0 0 0 0 0 0 0 127 0" result="hardAlpha"/>
<feOffset dy="2.5"/>
<feGaussianBlur stdDeviation="1.3125"/>
<feComposite in2="hardAlpha" operator="out"/>
<feColorMatrix type="matrix" values="0 0 0 0 0 0 0 0 0 0 0 0 0 0 0 0 0 0 0.25 0"/>
<feBlend mode="normal" in2="BackgroundImageFix" result="effect1_dropShadow_42_3607"/>
<feBlend mode="normal" in="SourceGraphic" in2="effect1_dropShadow_42_3607" result="shape"/>
</filter>
<linearGradient id="paint0_linear_42_3607" x1="110.125" y1="28.4132" x2="112.389" y2="39.0213" gradientUnits="userSpaceOnUse">
<stop stop-color="#4B62B8"/>
<stop offset="0.28" stop-color="#475DB4"/>
<stop offset="0.57" stop-color="#3E51AA"/>
<stop offset="0.86" stop-color="#2E3D99"/>
<stop offset="1" stop-color="#25318F"/>
</linearGradient>
<linearGradient id="paint1_linear_42_3607" x1="89.3583" y1="68.5032" x2="85.0144" y2="54.059" gradientUnits="userSpaceOnUse">
<stop stop-color="#DABC69"/>
<stop offset="0.07" stop-color="#DAB663"/>
<stop offset="0.37" stop-color="#DAA352"/>
<stop offset="0.68" stop-color="#DA9747"/>
<stop offset="1" stop-color="#DA9444"/>
</linearGradient>
<linearGradient id="paint2_linear_42_3607" x1="88.2172" y1="69.2614" x2="83.7817" y2="54.5047" gradientUnits="userSpaceOnUse">
<stop stop-color="#F0E37D"/>
<stop offset="0.08" stop-color="#F0DD76"/>
<stop offset="0.38" stop-color="#F0CD63"/>
<stop offset="0.68" stop-color="#F0C457"/>
<stop offset="1" stop-color="#F0C154"/>
</linearGradient>
<linearGradient id="paint3_linear_42_3607" x1="88.7227" y1="69.4405" x2="84.2122" y2="54.437" gradientUnits="userSpaceOnUse">
<stop stop-color="#F0E37D"/>
<stop offset="0.08" stop-color="#F0DD76"/>
<stop offset="0.38" stop-color="#F0CD63"/>
<stop offset="0.68" stop-color="#F0C457"/>
<stop offset="1" stop-color="#F0C154"/>
</linearGradient>
<linearGradient id="paint4_linear_42_3607" x1="89.0262" y1="68.7525" x2="84.6462" y2="54.1822" gradientUnits="userSpaceOnUse">
<stop stop-color="#F0E37D"/>
<stop offset="0.08" stop-color="#F0DD76"/>
<stop offset="0.38" stop-color="#F0CD63"/>
<stop offset="0.68" stop-color="#F0C457"/>
<stop offset="1" stop-color="#F0C154"/>
</linearGradient>
<linearGradient id="paint5_linear_42_3607" x1="90.8122" y1="68.4267" x2="85.8132" y2="53.8512" gradientUnits="userSpaceOnUse">
<stop stop-color="#F0E37D"/>
<stop offset="0.08" stop-color="#F0DD76"/>
<stop offset="0.38" stop-color="#F0CD63"/>
<stop offset="0.68" stop-color="#F0C457"/>
<stop offset="1" stop-color="#F0C154"/>
</linearGradient>
<linearGradient id="paint6_linear_42_3607" x1="90.3044" y1="68.3408" x2="85.3677" y2="53.9452" gradientUnits="userSpaceOnUse">
<stop stop-color="#F0E37D"/>
<stop offset="0.08" stop-color="#F0DD76"/>
<stop offset="0.38" stop-color="#F0CD63"/>
<stop offset="0.68" stop-color="#F0C457"/>
<stop offset="1" stop-color="#F0C154"/>
</linearGradient>
<linearGradient id="paint7_linear_42_3607" x1="90.0434" y1="69.1043" x2="84.938" y2="54.2255" gradientUnits="userSpaceOnUse">
<stop stop-color="#F0E37D"/>
<stop offset="0.08" stop-color="#F0DD76"/>
<stop offset="0.38" stop-color="#F0CD63"/>
<stop offset="0.68" stop-color="#F0C457"/>
<stop offset="1" stop-color="#F0C154"/>
</linearGradient>
<linearGradient id="paint8_linear_42_3607" x1="143.683" y1="12.7257" x2="68.7186" y2="36.8375" gradientUnits="userSpaceOnUse">
<stop stop-color="#3456D6"/>
<stop offset="0.33" stop-color="#3251D1"/>
<stop offset="0.69" stop-color="#2D45C4"/>
<stop offset="1" stop-color="#2736B3"/>
</linearGradient>
<linearGradient id="paint9_linear_42_3607" x1="131.29" y1="27.8075" x2="88.9615" y2="41.422" gradientUnits="userSpaceOnUse">
<stop stop-color="#6787FD"/>
<stop offset="0.26" stop-color="#5E7BF5"/>
<stop offset="0.73" stop-color="#475DE1"/>
<stop offset="1" stop-color="#3749D4"/>
</linearGradient>
<linearGradient id="paint10_linear_42_3607" x1="132.346" y1="31.9204" x2="90.4966" y2="45.3809" gradientUnits="userSpaceOnUse">
<stop stop-color="#F0E37D"/>
<stop offset="0.08" stop-color="#F0DD76"/>
<stop offset="0.38" stop-color="#F0CD63"/>
<stop offset="0.68" stop-color="#F0C457"/>
<stop offset="1" stop-color="#F0C154"/>
</linearGradient>
<linearGradient id="paint11_linear_42_3607" x1="142.527" y1="9.13159" x2="67.5626" y2="33.2434" gradientUnits="userSpaceOnUse">
<stop stop-color="#6787FD"/>
<stop offset="0.26" stop-color="#5E7BF5"/>
<stop offset="0.73" stop-color="#475DE1"/>
<stop offset="1" stop-color="#3749D4"/>
</linearGradient>
<linearGradient id="paint12_linear_42_3607" x1="84.663" y1="52.1782" x2="79.9937" y2="36.6395" gradientUnits="userSpaceOnUse">
<stop stop-color="#F0E37D"/>
<stop offset="0.08" stop-color="#F0DD76"/>
<stop offset="0.38" stop-color="#F0CD63"/>
<stop offset="0.68" stop-color="#F0C457"/>
<stop offset="1" stop-color="#F0C154"/>
</linearGradient>
<linearGradient id="paint13_linear_42_3607" x1="83.825" y1="51.0703" x2="83.1947" y2="48.9725" gradientUnits="userSpaceOnUse">
<stop stop-color="#F0E37D"/>
<stop offset="0.08" stop-color="#F0DD76"/>
<stop offset="0.38" stop-color="#F0CD63"/>
<stop offset="0.68" stop-color="#F0C457"/>
<stop offset="1" stop-color="#F0C154"/>
</linearGradient>
</defs>
</svg>
