<svg width="175" height="62" viewBox="0 0 175 62" fill="none" xmlns="http://www.w3.org/2000/svg">
<path d="M24.7251 27.3466C25.7117 24.9896 31.5221 25.2636 33.7146 25.2636C42.0464 25.6473 45.3901 29.4843 45.4449 33.0473C45.4997 36.391 44.0746 38.6383 41.6627 40.1183C45.3901 42.2013 46.7605 46.1479 46.1575 49.5464C45.3353 54.0412 40.1827 56.2338 34.3176 56.2886C32.1798 56.3982 25.931 56.2338 24.8895 53.8767C23.3547 50.9168 22.9162 31.8414 24.7251 27.3466ZM33.6598 37.3776C36.0168 36.665 37.1131 35.6236 37.1131 33.9243C37.1131 32.2799 35.688 31.348 33.4954 31.1836C33.5502 32.8828 33.6598 35.0206 33.6598 37.3776ZM33.6598 49.8753C35.688 49.656 37.2776 49.0531 37.6613 47.4086C37.9353 45.7094 36.7294 44.5035 33.7146 43.8457C33.7146 45.9287 33.7146 48.0116 33.6598 49.8753ZM58.9853 45.9287C59.8076 47.8472 61.3424 49.2723 63.8638 49.2723C65.3438 49.2723 67.2075 48.779 69.4001 47.5731C69.8386 47.3538 70.2771 47.2442 70.7156 47.2442C72.9082 47.2442 74.2786 50.0397 71.4282 52.1775C68.6875 54.2604 65.0149 55.4115 61.452 55.4115C55.5869 55.4115 50.1054 52.2871 49.5573 45.0516C49.1188 38.4191 52.7913 30.9643 61.0135 30.7451C66.6045 30.5258 70.8801 33.1569 71.1541 37.8709C71.4282 43.5168 65.3438 46.3672 58.9853 45.9287ZM58.6016 40.0635C59.3142 40.2828 59.972 40.3924 60.5202 40.3924C63.8638 40.3924 63.8638 36.8295 61.8357 36.665C60.2461 36.5554 59.0402 38.0902 58.6016 40.0635ZM98.4341 34.7465C98.763 37.1035 96.9541 38.6383 94.9808 38.6383C93.9942 38.6383 92.9527 38.3095 92.0757 37.4324C91.089 36.5554 89.5542 35.8976 88.4031 35.8976C87.6357 35.8976 87.0876 36.1717 86.9231 36.8295C86.3202 39.022 97.8312 39.0769 98.9275 46.4768C99.9141 52.7805 93.2816 55.8501 86.9231 55.8501C81.7706 55.8501 76.7825 53.7671 76.3988 49.8205C76.1247 47.0798 77.4402 45.2161 79.4136 45.2161C80.4002 45.2161 81.6061 45.7094 82.8669 46.8605C84.7854 48.6146 87.3616 49.7657 88.8964 49.7657C89.609 49.7657 90.1024 49.5464 90.212 49.0531C91.1438 46.1479 75.8506 44.9968 76.8373 36.5006C77.3854 32.1154 82.9217 30.2517 88.2935 30.2517C93.2816 30.2517 98.0504 31.8962 98.4341 34.7465ZM108.906 28.114C109.345 25.9214 111.099 24.9348 112.908 24.9348C114.881 24.9348 116.909 26.0859 117.512 28.114C117.731 28.8266 117.951 30.1421 118.225 31.8962C120.034 31.8414 121.514 31.7865 122.555 31.8414C125.46 32.0058 126.282 36.391 122.994 37.0487C121.678 37.2132 120.308 37.4872 118.828 37.7065C119.266 42.9139 119.321 48.8338 118.444 52.7256C117.951 54.9182 116.142 55.9049 114.278 55.9049C112.305 55.9049 110.277 54.8086 109.783 52.7256C108.961 49.382 108.577 43.7909 108.413 38.6383C106.988 38.6932 105.508 38.748 104.192 38.748C101.397 38.748 101.013 34.2532 104.083 33.5954C105.289 33.3214 106.823 33.0473 108.468 32.828C108.577 30.7999 108.687 29.1555 108.906 28.114ZM129.582 36.5006C131.062 32.1154 137.256 32.2799 138.188 36.5006C139.01 40.0635 139.558 47.7375 138.462 52.5612C137.53 56.9463 131.665 56.5078 129.856 52.5612C128.047 48.6146 128.65 39.0769 129.582 36.5006ZM134.515 31.4577C129.363 31.4577 129.198 25.2636 134.515 25.2636C139.723 25.2636 139.942 31.4577 134.515 31.4577ZM152.769 45.9287C153.592 47.8472 155.126 49.2723 157.648 49.2723C159.128 49.2723 160.991 48.779 163.184 47.5731C163.623 47.3538 164.061 47.2442 164.5 47.2442C166.692 47.2442 168.063 50.0397 165.212 52.1775C162.471 54.2604 158.799 55.4115 155.236 55.4115C149.371 55.4115 143.889 52.2871 143.341 45.0516C142.903 38.4191 146.575 30.9643 154.797 30.7451C160.389 30.5258 164.664 33.1569 164.938 37.8709C165.212 43.5168 159.128 46.3672 152.769 45.9287ZM152.386 40.0635C153.098 40.2828 153.756 40.3924 154.304 40.3924C157.648 40.3924 157.648 36.8295 155.62 36.665C154.03 36.5554 152.824 38.0902 152.386 40.0635Z" fill="#232323"/>
<path d="M13.4995 34.4435L17.0344 44.3646L15.4626 44.8702L12.5123 34.761L13.4995 34.4435Z" fill="url(#paint0_linear_20_25)"/>
<path d="M15.6498 45.0354L15.2224 45.1729L12.4568 34.7487L12.5864 34.707L15.6498 45.0354Z" fill="url(#paint1_linear_20_25)"/>
<path d="M16.0036 45.1132L15.5761 45.2507L12.6527 34.6856L12.785 34.6431L16.0036 45.1132Z" fill="url(#paint2_linear_20_25)"/>
<path d="M16.2285 44.7117L15.8038 44.8483L12.8603 34.6183L12.9927 34.5757L16.2285 44.7117Z" fill="url(#paint3_linear_20_25)"/>
<path d="M16.9343 44.622L17.3618 44.4845L13.5621 34.393L13.4297 34.4356L16.9343 44.622Z" fill="url(#paint4_linear_20_25)"/>
<path d="M16.5932 44.5945L17.0179 44.4579L13.3657 34.4558L13.2333 34.4984L16.5932 44.5945Z" fill="url(#paint5_linear_20_25)"/>
<path d="M16.3883 45.0413L16.8158 44.9038L13.1575 34.5233L13.0251 34.5659L16.3883 45.0413Z" fill="url(#paint6_linear_20_25)"/>
<path d="M4.00159 28.2119L25.0864 8.61015C25.4334 8.2886 25.9049 8.13693 26.3715 8.19682L54.9301 11.8311C55.2887 11.8771 55.4057 12.3354 55.1149 12.5476L41.6655 22.36L20.9197 29.0327L4.27189 28.9009C3.9119 28.898 3.73885 28.4546 4.00434 28.211L4.00159 28.2119Z" fill="url(#paint7_linear_20_25)"/>
<g filter="url(#filter0_d_20_25)">
<path d="M43.4828 15.5378L47.7183 25.3949C37.0301 25.7134 30.687 27.6857 18.716 34.7232L16.2178 24.3074C16.2178 24.3074 24.6278 15.3552 43.4856 15.5369L43.4828 15.5378Z" fill="url(#paint8_linear_20_25)"/>
</g>
<path d="M18.1885 32.528L17.927 31.4406C21.1345 28.8205 30.3038 22.7401 46.4906 22.5363L46.9913 23.705C31.9165 24.2631 22.5604 29.3843 18.1885 32.528Z" fill="url(#paint9_linear_20_25)"/>
<path d="M55.1149 12.5476L54.9866 12.6406L26.6403 9.03239C26.1709 8.97338 25.6994 9.12506 25.3552 9.44572L4.42761 28.9025L4.26914 28.9018C3.90914 28.8989 3.73699 28.4583 4.00159 28.2119L25.0864 8.61015C25.4334 8.2886 25.9022 8.13781 26.3715 8.19682L54.9301 11.8311C55.2887 11.8771 55.4057 12.3354 55.1149 12.5476Z" fill="url(#paint10_linear_20_25)"/>
<path d="M9.22755 22.8766C9.3847 22.6557 9.73036 22.368 10.4983 22.1727L9.57959 23.0251L12.8836 33.2974L12.4038 33.4517L9.16008 23.3669C9.10686 23.2015 9.12711 23.0185 9.22843 22.8794L9.22755 22.8766Z" fill="url(#paint11_linear_20_25)"/>
<path d="M12.4469 34.8402L13.6548 34.4517L12.9794 33.0805L12.1963 33.3324L12.4469 34.8402Z" fill="url(#paint12_linear_20_25)"/>
<defs>
<filter id="filter0_d_20_25" x="14.4192" y="15.4485" width="35.0977" height="22.7863" filterUnits="userSpaceOnUse" color-interpolation-filters="sRGB">
<feFlood flood-opacity="0" result="BackgroundImageFix"/>
<feColorMatrix in="SourceAlpha" type="matrix" values="0 0 0 0 0 0 0 0 0 0 0 0 0 0 0 0 0 0 127 0" result="hardAlpha"/>
<feOffset dy="1.71295"/>
<feGaussianBlur stdDeviation="0.899298"/>
<feComposite in2="hardAlpha" operator="out"/>
<feColorMatrix type="matrix" values="0 0 0 0 0 0 0 0 0 0 0 0 0 0 0 0 0 0 0.25 0"/>
<feBlend mode="normal" in2="BackgroundImageFix" result="effect1_dropShadow_20_25"/>
<feBlend mode="normal" in="SourceGraphic" in2="effect1_dropShadow_20_25" result="shape"/>
</filter>
<linearGradient id="paint0_linear_20_25" x1="16.9459" y1="46.937" x2="13.9696" y2="37.0401" gradientUnits="userSpaceOnUse">
<stop stop-color="#DABC69"/>
<stop offset="0.07" stop-color="#DAB663"/>
<stop offset="0.37" stop-color="#DAA352"/>
<stop offset="0.68" stop-color="#DA9747"/>
<stop offset="1" stop-color="#DA9444"/>
</linearGradient>
<linearGradient id="paint1_linear_20_25" x1="16.1638" y1="47.4566" x2="13.1247" y2="37.3456" gradientUnits="userSpaceOnUse">
<stop stop-color="#F0E37D"/>
<stop offset="0.08" stop-color="#F0DD76"/>
<stop offset="0.38" stop-color="#F0CD63"/>
<stop offset="0.68" stop-color="#F0C457"/>
<stop offset="1" stop-color="#F0C154"/>
</linearGradient>
<linearGradient id="paint2_linear_20_25" x1="16.5107" y1="47.5792" x2="13.4202" y2="37.2991" gradientUnits="userSpaceOnUse">
<stop stop-color="#F0E37D"/>
<stop offset="0.08" stop-color="#F0DD76"/>
<stop offset="0.38" stop-color="#F0CD63"/>
<stop offset="0.68" stop-color="#F0C457"/>
<stop offset="1" stop-color="#F0C154"/>
</linearGradient>
<linearGradient id="paint3_linear_20_25" x1="16.7162" y1="47.1078" x2="13.7151" y2="37.1246" gradientUnits="userSpaceOnUse">
<stop stop-color="#F0E37D"/>
<stop offset="0.08" stop-color="#F0DD76"/>
<stop offset="0.38" stop-color="#F0CD63"/>
<stop offset="0.68" stop-color="#F0C457"/>
<stop offset="1" stop-color="#F0C154"/>
</linearGradient>
<linearGradient id="paint4_linear_20_25" x1="17.942" y1="46.8844" x2="14.5168" y2="36.8976" gradientUnits="userSpaceOnUse">
<stop stop-color="#F0E37D"/>
<stop offset="0.08" stop-color="#F0DD76"/>
<stop offset="0.38" stop-color="#F0CD63"/>
<stop offset="0.68" stop-color="#F0C457"/>
<stop offset="1" stop-color="#F0C154"/>
</linearGradient>
<linearGradient id="paint5_linear_20_25" x1="17.5938" y1="46.8256" x2="14.2113" y2="36.962" gradientUnits="userSpaceOnUse">
<stop stop-color="#F0E37D"/>
<stop offset="0.08" stop-color="#F0DD76"/>
<stop offset="0.38" stop-color="#F0CD63"/>
<stop offset="0.68" stop-color="#F0C457"/>
<stop offset="1" stop-color="#F0C154"/>
</linearGradient>
<linearGradient id="paint6_linear_20_25" x1="17.4166" y1="47.3488" x2="13.9184" y2="37.1541" gradientUnits="userSpaceOnUse">
<stop stop-color="#F0E37D"/>
<stop offset="0.08" stop-color="#F0DD76"/>
<stop offset="0.38" stop-color="#F0CD63"/>
<stop offset="0.68" stop-color="#F0C457"/>
<stop offset="1" stop-color="#F0C154"/>
</linearGradient>
<linearGradient id="paint7_linear_20_25" x1="54.1696" y1="8.71937" x2="2.8054" y2="25.2402" gradientUnits="userSpaceOnUse">
<stop stop-color="#3456D6"/>
<stop offset="0.33" stop-color="#3251D1"/>
<stop offset="0.69" stop-color="#2D45C4"/>
<stop offset="1" stop-color="#2736B3"/>
</linearGradient>
<linearGradient id="paint8_linear_20_25" x1="45.6785" y1="19.0532" x2="16.6762" y2="28.3815" gradientUnits="userSpaceOnUse">
<stop stop-color="#6787FD"/>
<stop offset="0.26" stop-color="#5E7BF5"/>
<stop offset="0.73" stop-color="#475DE1"/>
<stop offset="1" stop-color="#3749D4"/>
</linearGradient>
<linearGradient id="paint9_linear_20_25" x1="46.4015" y1="21.8712" x2="17.7273" y2="31.094" gradientUnits="userSpaceOnUse">
<stop stop-color="#F0E37D"/>
<stop offset="0.08" stop-color="#F0DD76"/>
<stop offset="0.38" stop-color="#F0CD63"/>
<stop offset="0.68" stop-color="#F0C457"/>
<stop offset="1" stop-color="#F0C154"/>
</linearGradient>
<linearGradient id="paint10_linear_20_25" x1="53.3775" y1="6.25678" x2="2.01332" y2="22.7777" gradientUnits="userSpaceOnUse">
<stop stop-color="#6787FD"/>
<stop offset="0.26" stop-color="#5E7BF5"/>
<stop offset="0.73" stop-color="#475DE1"/>
<stop offset="1" stop-color="#3749D4"/>
</linearGradient>
<linearGradient id="paint11_linear_20_25" x1="13.7307" y1="35.7514" x2="10.5314" y2="25.1046" gradientUnits="userSpaceOnUse">
<stop stop-color="#F0E37D"/>
<stop offset="0.08" stop-color="#F0DD76"/>
<stop offset="0.38" stop-color="#F0CD63"/>
<stop offset="0.68" stop-color="#F0C457"/>
<stop offset="1" stop-color="#F0C154"/>
</linearGradient>
<linearGradient id="paint12_linear_20_25" x1="13.1562" y1="34.9924" x2="12.7243" y2="33.5551" gradientUnits="userSpaceOnUse">
<stop stop-color="#F0E37D"/>
<stop offset="0.08" stop-color="#F0DD76"/>
<stop offset="0.38" stop-color="#F0CD63"/>
<stop offset="0.68" stop-color="#F0C457"/>
<stop offset="1" stop-color="#F0C154"/>
</linearGradient>
</defs>
</svg>
