<svg width="30" height="22" viewBox="0 0 30 22" fill="none" xmlns="http://www.w3.org/2000/svg">
<path d="M17.6667 11.0002L13 13.6668V8.3335L17.6667 11.0002Z" fill="url(#paint0_linear_28_2033)" stroke="url(#paint1_linear_28_2033)" stroke-width="2" stroke-linecap="round" stroke-linejoin="round"/>
<path d="M1.66602 11.9439V10.0559C1.66602 6.19587 1.66602 4.2652 2.87268 3.02387C4.08068 1.7812 5.98202 1.72787 9.78335 1.61987C11.5833 1.5692 13.4233 1.5332 14.9993 1.5332C16.574 1.5332 18.414 1.5692 20.2153 1.61987C24.0167 1.72787 25.918 1.7812 27.1247 3.02387C28.3327 4.2652 28.3327 6.1972 28.3327 10.0559V11.9425C28.3327 15.8039 28.3327 17.7332 27.126 18.9759C25.918 20.2172 24.018 20.2719 20.2153 20.3785C18.4153 20.4305 16.5753 20.4665 14.9993 20.4665C13.2604 20.4613 11.5215 20.432 9.78335 20.3785C5.98202 20.2719 4.08068 20.2185 2.87268 18.9759C1.66602 17.7332 1.66602 15.8025 1.66602 11.9439Z" stroke="url(#paint2_linear_28_2033)" stroke-width="2"/>
<defs>
<linearGradient id="paint0_linear_28_2033" x1="13" y1="11.0002" x2="17.6667" y2="11.0002" gradientUnits="userSpaceOnUse">
<stop stop-color="#6787FD"/>
<stop offset="0.26" stop-color="#5E7BF5"/>
<stop offset="0.73" stop-color="#475DE1"/>
<stop offset="1" stop-color="#3749D4"/>
</linearGradient>
<linearGradient id="paint1_linear_28_2033" x1="13" y1="11.0002" x2="17.6667" y2="11.0002" gradientUnits="userSpaceOnUse">
<stop stop-color="#6787FD"/>
<stop offset="0.26" stop-color="#5E7BF5"/>
<stop offset="0.73" stop-color="#475DE1"/>
<stop offset="1" stop-color="#3749D4"/>
</linearGradient>
<linearGradient id="paint2_linear_28_2033" x1="1.66602" y1="11.0001" x2="28.3327" y2="11.0001" gradientUnits="userSpaceOnUse">
<stop stop-color="#6787FD"/>
<stop offset="0.26" stop-color="#5E7BF5"/>
<stop offset="0.73" stop-color="#475DE1"/>
<stop offset="1" stop-color="#3749D4"/>
</linearGradient>
</defs>
</svg>
